<svg id="Capa_1" data-name="Capa 1" xmlns="http://www.w3.org/2000/svg" viewBox="0 0 462.28 449.2" class="svgagregados">
  <title>agregados</title>
  <path d="M315.49,38.13L246.62,107,393.7,254.06l84.86-84.85a8,8,0,1,0-11.32-11.31h0l-50.9,50.9a24,24,0,0,1-33.94-33.94l17-17a8,8,0,0,0,0-11.31h0a8.18,8.18,0,0,0-11.31,0l-22.62,22.63a24,24,0,1,1-33.94-33.94l22.63-22.62a8,8,0,1,0-11.32-11.31L320.18,124a24.58,24.58,0,0,1-33.94,0,24,24,0,0,1,0-33.94h0l40.55-40.57a8,8,0,0,0,0-11.3,8.17,8.17,0,0,0-11.3,0h0Z" transform="translate(-18.62 -35.86)"/>
  <path d="M399.36,56.07a8,8,0,1,0,0,11.31h0a8,8,0,0,0,0-11.3h0Z" transform="translate(-18.62 -35.86)"/>
  <path d="M444.62,112.64a8,8,0,1,0-11.31,0h0A8.18,8.18,0,0,0,444.62,112.64Z" transform="translate(-18.62 -35.86)"/>
  <path d="M207.49,149.13L138.62,218,285.7,365.06l84.86-84.85a8,8,0,1,0-11.32-11.31h0l-50.9,50.9a24,24,0,0,1-33.94-33.94l17-17a8,8,0,0,0,0-11.31h0a8.18,8.18,0,0,0-11.31,0l-22.62,22.63a24,24,0,0,1-33.94-33.94l22.63-22.62a8,8,0,1,0-11.32-11.31L212.18,235a24.58,24.58,0,0,1-33.94,0,24,24,0,0,1,0-33.94h0l40.55-40.57a8,8,0,0,0,0-11.3,8.17,8.17,0,0,0-11.3,0h0Z" transform="translate(-18.62 -35.86)"/>
  <path d="M291.36,167.07a8,8,0,1,0,0,11.31h0a8,8,0,0,0,0-11.3h0Z" transform="translate(-18.62 -35.86)"/>
  <path d="M336.62,223.64a8,8,0,1,0-11.31,0h0A8.18,8.18,0,0,0,336.62,223.64Z" transform="translate(-18.62 -35.86)"/>
  <path d="M87.49,269.13L18.62,338,165.7,485.06l84.86-84.85a8,8,0,1,0-11.32-11.31h0l-50.9,50.9a24,24,0,0,1-33.94-33.94l17-17a8,8,0,0,0,0-11.31h0a8.18,8.18,0,0,0-11.31,0l-22.62,22.63a24,24,0,0,1-33.94-33.94l22.63-22.62a8,8,0,1,0-11.32-11.31L92.18,355a24.58,24.58,0,0,1-33.94,0,24,24,0,0,1,0-33.94h0l40.55-40.57a8,8,0,0,0,0-11.3,8.17,8.17,0,0,0-11.3,0h0Z" transform="translate(-18.62 -35.86)"/>
  <path d="M171.36,287.07a8,8,0,1,0,0,11.31h0a8,8,0,0,0,0-11.3h0Z" transform="translate(-18.62 -35.86)"/>
  <path d="M216.62,343.64a8,8,0,1,0-11.31,0h0A8.18,8.18,0,0,0,216.62,343.64Z" transform="translate(-18.62 -35.86)"/>
  <path d="M207.49,149.13L138.62,218,285.7,365.06l84.86-84.85a8,8,0,1,0-11.32-11.31h0l-50.9,50.9a24,24,0,0,1-33.94-33.94l17-17a8,8,0,0,0,0-11.31h0a8.18,8.18,0,0,0-11.31,0l-22.62,22.63a24,24,0,0,1-33.94-33.94l22.63-22.62a8,8,0,1,0-11.32-11.31L212.18,235a24.58,24.58,0,0,1-33.94,0,24,24,0,0,1,0-33.94h0l40.55-40.57a8,8,0,0,0,0-11.3,8.17,8.17,0,0,0-11.3,0h0Z" transform="translate(-18.62 -35.86)"/>
  <path d="M291.36,167.07a8,8,0,1,0,0,11.31h0a8,8,0,0,0,0-11.3h0Z" transform="translate(-18.62 -35.86)"/>
  <path d="M336.62,223.64a8,8,0,1,0-11.31,0h0A8.18,8.18,0,0,0,336.62,223.64Z" transform="translate(-18.62 -35.86)"/>
</svg>
