<svg id="Capa_1" data-name="Capa 1" xmlns="http://www.w3.org/2000/svg" viewBox="0 0 448 448" class="svgbolsa">
  <title>bolsa</title>
  <g id="Calendar">
    <path d="M280,408a24,24,0,0,1-24,24h32V384H256A24,24,0,0,1,280,408Z" transform="translate(-32 -32)"/>
    <path d="M256,336a8,8,0,0,0,8-8V216a8,8,0,0,0-16,0V328A8,8,0,0,0,256,336Z" transform="translate(-32 -32)"/>
    <path d="M320,320a8,8,0,0,0,8-8V248a8,8,0,0,0-16,0v64A8,8,0,0,0,320,320Z" transform="translate(-32 -32)"/>
    <path d="M232,408a24,24,0,0,1,24-24H224v48h32A24,24,0,0,1,232,408Z" transform="translate(-32 -32)"/>
    <path d="M192,320a8,8,0,0,0,8-8V248a8,8,0,0,0-16,0v64A8,8,0,0,0,192,320Z" transform="translate(-32 -32)"/>
    <path d="M112,408v24h96V400H120A8,8,0,0,0,112,408Z" transform="translate(-32 -32)"/>
    <circle cx="224" cy="376" r="8"/>
    <path d="M392,400H304v32h96V408A8,8,0,0,0,392,400Z" transform="translate(-32 -32)"/>
    <path d="M304,384h72V360a119.2,119.2,0,0,0-32-81.38V312a24,24,0,0,1-48,0V248c0-.38.1-0.72,0.11-1.09A114.85,114.85,0,0,0,280,242.4V328a24,24,0,0,1-48,0V242.4a114.85,114.85,0,0,0-16.11,4.48c0,0.37.11,0.71,0.11,1.09v64a24,24,0,0,1-48,0V278.62A119.2,119.2,0,0,0,136,360v24h72v-8a8,8,0,0,1,8-8h80a8,8,0,0,1,8,8v8Z" transform="translate(-32 -32)"/>
    <path d="M328,88a8,8,0,0,0,16,0V40a8,8,0,0,0-16,0V88Z" transform="translate(-32 -32)"/>
    <path d="M408,88a8,8,0,0,0,16,0V40a8,8,0,0,0-16,0V88Z" transform="translate(-32 -32)"/>
    <path d="M480,160H32V456a24,24,0,0,0,24,24H456a24,24,0,0,0,24-24V160ZM416,440a8,8,0,0,1-8,8H104a8,8,0,0,1-8-8V408a24,24,0,0,1,24-24V360a135.2,135.2,0,0,1,48-103.48V248a23.9,23.9,0,0,1,41.84-15.9A131.07,131.07,0,0,1,232,226.18V216a24,24,0,0,1,48,0v10.18a131.07,131.07,0,0,1,22.16,5.93A23.9,23.9,0,0,1,344,248v8.52A135.2,135.2,0,0,1,392,360v24a24,24,0,0,1,24,24v32Z" transform="translate(-32 -32)"/>
    <path d="M248,88a8,8,0,0,0,16,0V40a8,8,0,0,0-16,0V88Z" transform="translate(-32 -32)"/>
    <path d="M480,88a24,24,0,0,0-24-24H440V88a24,24,0,0,1-48,0V64H360V88a24,24,0,0,1-48,0V64H280V88a24,24,0,0,1-48,0V64H200V88a24,24,0,0,1-48,0V64H120V88a24,24,0,0,1-48,0V64H56A24,24,0,0,0,32,88v56H480V88Z" transform="translate(-32 -32)"/>
    <path d="M168,88a8,8,0,0,0,16,0V40a8,8,0,0,0-16,0V88Z" transform="translate(-32 -32)"/>
    <path d="M88,88a8,8,0,0,0,16,0V40a8,8,0,0,0-16,0V88Z" transform="translate(-32 -32)"/>
  </g>
</svg>
