<svg id="Capa_1" data-name="Capa 1" xmlns="http://www.w3.org/2000/svg" viewBox="0 0 401 401" class="svgbombeo">
  <title>bombeo</title>
  <g>
    <path d="M280.18,284.65h-19.4v-6.47a6.47,6.47,0,0,0-6.47-6.47H163.76a6.47,6.47,0,0,1-6.47-6.47V84.15a6.47,6.47,0,0,0-6.47-6.47h-6.47V32.4A19.43,19.43,0,0,0,125,13H47.34a19.43,19.43,0,0,0-19.4,19.4V77.68H21.47A6.47,6.47,0,0,0,15,84.15v194C15,353.07,75.93,414,150.82,414H254.31a6.47,6.47,0,0,0,6.47-6.47v-6.47h19.4a6.47,6.47,0,0,0,6.47-6.47V291.11A6.47,6.47,0,0,0,280.18,284.65ZM47.34,25.94H125a6.47,6.47,0,0,1,6.47,6.47v6.47H40.87V32.4A6.47,6.47,0,0,1,47.34,25.94ZM40.87,51.81h90.55V77.68H40.87V51.81Zm207,349.26h-97A123,123,0,0,1,27.94,278.18V90.61H144.35V265.24a19.43,19.43,0,0,0,19.4,19.4h84.08V401.06Zm25.87-12.94H260.77V297.58h12.94v90.55Z" transform="translate(-15 -13)"/>
    <path d="M299.58,297.58h12.94v12.94H299.58V297.58Z" transform="translate(-15 -13)"/>
    <path d="M325.45,297.58h12.94v12.94H325.45V297.58Z" transform="translate(-15 -13)"/>
    <path d="M351.32,297.58h12.94v12.94H351.32V297.58Z" transform="translate(-15 -13)"/>
    <path d="M377.19,297.58h12.94v12.94H377.19V297.58Z" transform="translate(-15 -13)"/>
    <path d="M403.06,297.58H416v12.94H403.06V297.58Z" transform="translate(-15 -13)"/>
    <path d="M299.58,323.45h12.94v12.94H299.58V323.45Z" transform="translate(-15 -13)"/>
    <path d="M325.45,323.45h12.94v12.94H325.45V323.45Z" transform="translate(-15 -13)"/>
    <path d="M351.32,323.45h12.94v12.94H351.32V323.45Z" transform="translate(-15 -13)"/>
    <path d="M377.19,323.45h12.94v12.94H377.19V323.45Z" transform="translate(-15 -13)"/>
    <path d="M403.06,323.45H416v12.94H403.06V323.45Z" transform="translate(-15 -13)"/>
    <path d="M299.58,349.32h12.94v12.94H299.58V349.32Z" transform="translate(-15 -13)"/>
    <path d="M325.45,349.32h12.94v12.94H325.45V349.32Z" transform="translate(-15 -13)"/>
    <path d="M351.32,349.32h12.94v12.94H351.32V349.32Z" transform="translate(-15 -13)"/>
    <path d="M377.19,349.32h12.94v12.94H377.19V349.32Z" transform="translate(-15 -13)"/>
    <path d="M403.06,349.32H416v12.94H403.06V349.32Z" transform="translate(-15 -13)"/>
    <path d="M299.58,375.19h12.94v12.94H299.58V375.19Z" transform="translate(-15 -13)"/>
    <path d="M325.45,375.19h12.94v12.94H325.45V375.19Z" transform="translate(-15 -13)"/>
    <path d="M351.32,375.19h12.94v12.94H351.32V375.19Z" transform="translate(-15 -13)"/>
    <path d="M377.19,375.19h12.94v12.94H377.19V375.19Z" transform="translate(-15 -13)"/>
    <path d="M403.06,375.19H416v12.94H403.06V375.19Z" transform="translate(-15 -13)"/>
    <path d="M86.15,252.31a19.43,19.43,0,0,0,19.4-19.4V129.42a19.4,19.4,0,0,0-38.81,0V232.9A19.43,19.43,0,0,0,86.15,252.31ZM79.68,129.42a6.47,6.47,0,0,1,12.94,0V232.9a6.47,6.47,0,0,1-12.94,0V129.42Z" transform="translate(-15 -13)"/>
    <path d="M53.81,278.18H40.87a110.07,110.07,0,0,0,110,110V375.19A97.13,97.13,0,0,1,53.81,278.18Z" transform="translate(-15 -13)"/>
  </g>
</svg>
