<svg id="Capa_1" data-name="Capa 1" xmlns="http://www.w3.org/2000/svg" viewBox="0 0 448 448" class="svgcursosenlinea">
  <title>cursosenlinea</title>
  <path d="M149.6,77.86L166,56,149.6,34.14l-9,4.47a46.75,46.75,0,0,1,0,34.77Z" transform="translate(-32 -32)"/>
  <path d="M336,80V64H180L168,80H336Z" transform="translate(-32 -32)"/>
  <path d="M392,32h-8V80h8A24,24,0,0,0,392,32Z" transform="translate(-32 -32)"/>
  <path d="M105.89,56l20.39,10.2a31.1,31.1,0,0,0,0-20.4Z" transform="translate(-32 -32)"/>
  <path d="M336,48V32H168l12,16H336Z" transform="translate(-32 -32)"/>
  <path d="M352,32h16V80H352V32Z" transform="translate(-32 -32)"/>
  <path d="M128,392h48v40H128V392Z" transform="translate(-32 -32)"/>
  <path d="M369.47,432H384V417.47A24,24,0,0,0,369.47,432Z" transform="translate(-32 -32)"/>
  <path d="M32,400.84a55.93,55.93,0,0,1,32-16.27V96.8A40.06,40.06,0,0,0,32,136V400.84Z" transform="translate(-32 -32)"/>
  <path d="M32,441.65A38.4,38.4,0,0,0,70.32,480H441.68A38.4,38.4,0,0,0,480,441.68V440a40,40,0,0,0-40-40,8,8,0,0,1-8-8V128H80V392a8,8,0,0,1-8,8,40,40,0,0,0-40,40v1.65ZM120,144h48a8,8,0,0,1,0,16H120A8,8,0,0,1,120,144Zm0,32H232a8,8,0,0,1,0,16H120A8,8,0,0,1,120,176Zm-8,40a8,8,0,0,1,8-8H336a8,8,0,0,1,8,8v56h48a8,8,0,0,1,8,8V440a8,8,0,0,1-8,8H216a8,8,0,0,1-8-8V336H152a8,8,0,0,1,0-16H280a8,8,0,0,1,8,8v32a8,8,0,0,1-16,0V336H224v96h48V408a8,8,0,0,1,16,0v24h64.8A40.13,40.13,0,0,1,384,400.8V368H328a8,8,0,0,1,0-16h56V288H344v24a8,8,0,0,1-16,0V288H288a8,8,0,0,1,0-16h40V224H224v56a8,8,0,0,1-16,0V224H128v48h40a8,8,0,0,1,0,16H128v88h56a8,8,0,0,1,8,8v56a8,8,0,0,1-8,8H120a8,8,0,0,1-8-8V216Z" transform="translate(-32 -32)"/>
  <path d="M480,136a40.06,40.06,0,0,0-32-39.2V384.56a55.93,55.93,0,0,1,32,16.27V136Z" transform="translate(-32 -32)"/>
</svg>
