<svg height="512" viewBox="0 0 64 64" width="512" xmlns="http://www.w3.org/2000/svg" class="svglaboratorio"><g id="Crane-2" data-name="Crane"><path d="m7 46v10h50v-10zm37 6h-24a1 1 0 0 1 0-2h24a1 1 0 0 1 0 2z"/><path d="m4 58h56v2h-56z"/><path d="m4 42h56v2h-56z"/><path d="m22 7h20a1 1 0 0 0 1-1v-4h-22v4a1 1 0 0 0 1 1z"/><path d="m37.307 15 2.25-6h-15.114l2.25 6z"/><path d="m37.307 15 2.25-6h-15.114l2.25 6z"/><path d="m38.561 29.635-.061-.035a6.993 6.993 0 0 0 -3.5-8.93v-3.67h-6v2l3 4a4.006 4.006 0 0 1 3.893 4.942c-.01.043-.028.084-.039.127l-.356-.206a7.041 7.041 0 0 0 -7 0l-.352.2a3.989 3.989 0 0 1 -.146-1.063v-3l-.876.876a5.051 5.051 0 0 0 -1.38 4.578l-18.279 10.546h4l15.1-8.715c.015.02.024.042.04.061a6.86 6.86 0 0 0 5.188 2.654 6.977 6.977 0 0 0 5.7-2.672l15.039 8.672h4zm-9.061-.035a5.035 5.035 0 0 1 5 0l.361.208a3.914 3.914 0 0 1 -1.92 1.087 4 4 0 0 1 -.51.082c-.063.006-.126.009-.19.012-.1.006-.2.01-.3.009-.079 0-.158-.008-.237-.013a3.987 3.987 0 0 1 -2.56-1.182z"/></g></svg>