<?xml version="1.0" encoding="utf-8"?>
<!-- Generator: Adobe Illustrator 19.2.1, SVG Export Plug-In . SVG Version: 6.00 Build 0)  -->
<svg version="1.1" id="Capa_1" xmlns="http://www.w3.org/2000/svg" xmlns:xlink="http://www.w3.org/1999/xlink" x="0px" y="0px"
	 viewBox="0 0 479 309.2" style="enable-background:new 0 0 479 309.2;" xml:space="preserve" class="svgautoconstruccion">
<style type="text/css">
	.st0{fill:#FFFFFF;}
	.st1{font-family:'Raleway';}
	.st2{font-size:44.16px;}
	.st3{fill:#FFFFFF;stroke:#A8A8A8;stroke-miterlimit:10;}
</style>
<title>logo-autoconstruccion</title>
<g>
	<polygon class="st0" points="204,47.6 141.6,47.6 28.4,203.1 0,203.1 0,242.1 62.4,242.1 90.8,203.1 138.7,137.3 206.6,137 
		254.7,203.1 283.1,242.1 345.6,242.1 345.6,203.1 317.1,203.1 	"/>
	<polygon class="st0" points="450.2,203.1 431.8,177.9 431.8,90 392.8,90 392.8,124.2 367.5,89.5 305.1,89.6 288.4,112.4 
		319.6,155.3 352.7,155.1 387.7,203.1 387.7,203.1 416.1,242.1 478.5,242.1 478.5,203.1 	"/>
</g>
<path class="st0" d="M160.9,193.8c5.2-6.6,14.7-7.7,21.2-2.5c0.9,0.7,1.8,1.6,2.5,2.5l21.2-12.2c-12-18.3-36.5-23.4-54.8-11.4
	c-4.5,3-8.4,6.9-11.4,11.4L160.9,193.8z"/>
<path class="st0" d="M170.6,217.9c-8.2-1.1-13.9-8.7-12.8-16.9c0.2-1.2,0.5-2.4,0.9-3.5l-21.2-12.2c-9.9,19.3-2.2,43,17.2,52.9
	c5,2.5,10.4,4,15.9,4.2V217.9z"/>
<path class="st0" d="M208.1,185.3l-21.2,12.2c3.1,7.7-0.6,16.4-8.3,19.5c-1.1,0.5-2.3,0.8-3.5,0.9v24.4
	c20.9-1.1,37.3-18.4,37.4-39.3C212.4,196.9,210.9,190.8,208.1,185.3"/>
<text transform="matrix(1 0 0 1 1.61 298.89)" class="st0 st1 st2">A</text>
<text transform="matrix(1 0 0 1 30.45 298.89)" class="st0 st1 st2">U</text>
<text transform="matrix(1 0 0 1 64.06 298.89)" class="st0 st1 st2">T</text>
<text transform="matrix(1 0 0 1 89.19 298.89)" class="st0 st1 st2">O</text>
<text transform="matrix(1 0 0 1 123.06 298.89)" class="st0 st1 st2">C</text>
<text transform="matrix(1 0 0 1 153.09 298.89)" class="st0 st1 st2">ONST</text>
<text transform="matrix(1 0 0 1 274.99 298.89)" class="st0 st1 st2">R</text>
<text transform="matrix(1 0 0 1 304.53 298.89)" class="st0 st1 st2">U</text>
<text transform="matrix(1 0 0 1 337.35 298.89)" class="st0 st1 st2">C</text>
<text transform="matrix(1 0 0 1 367.38 298.89)" class="st0 st1 st2">CIÓN</text>
<line class="st3" x1="393.8" y1="173.2" x2="393.8" y2="47.4"/>
<line class="st3" x1="430.7" y1="173.1" x2="430.7" y2="47.2"/>
<line class="st3" x1="398.9" y1="125.8" x2="398.9" y2="0"/>
<line class="st3" x1="425.8" y1="125.8" x2="425.8" y2="0"/>
</svg>
