<svg id="Capa_1" data-name="Capa 1" xmlns="http://www.w3.org/2000/svg" viewBox="0 0 479.5 308.78" class="svgautoconstruccion">
  <defs>
    <style>
      .cls-1, .cls-2, .cls-3, .cls-4 {
        fill: #fff;
      }

      .cls-1 {
        stroke: #fff;
        stroke-miterlimit: 10;
      }

      .cls-3, .cls-4 {
        isolation: isolate;
        font-size: 44.16px;
        font-family: Raleway;
      }

      .cls-3, .cls-5 {
        letter-spacing: -1px;
      }
    </style>
  </defs>
  <title>logo-autoconstruccion</title>
  <g>
    <polygon class="cls-1" points="204.5 47.6 142.1 47.6 28.9 203.1 0.5 203.1 0.5 242.1 62.9 242.1 91.3 203.1 139.2 137.3 207.1 137 255.2 203.1 283.6 242.1 346.1 242.1 346.1 203.1 317.6 203.1 204.5 47.6"/>
    <polygon class="cls-1" points="450.7 203.1 432.3 177.9 432.3 90 393.3 90 393.3 124.2 368 89.5 305.6 89.6 288.9 112.4 320.1 155.3 353.2 155.1 388.2 203.1 388.2 203.1 416.6 242.1 479 242.1 479 203.1 450.7 203.1"/>
  </g>
  <path class="cls-2" d="M160.9,193.8a15,15,0,0,1,21.2-2.5,14.78,14.78,0,0,1,2.5,2.5l21.2-12.2A39.55,39.55,0,0,0,151,170.2a41.24,41.24,0,0,0-11.4,11.4Z" transform="translate(0.5)"/>
  <path class="cls-2" d="M170.6,217.9A15,15,0,0,1,157.8,201a20,20,0,0,1,.9-3.5l-21.2-12.2a39.29,39.29,0,0,0,17.2,52.9,38.78,38.78,0,0,0,15.9,4.2V217.9h0Z" transform="translate(0.5)"/>
  <path class="cls-2" d="M208.1,185.3l-21.2,12.2a15,15,0,0,1-8.3,19.5,10.64,10.64,0,0,1-3.5.9v24.4A39.55,39.55,0,0,0,212.5,203a40.62,40.62,0,0,0-4.4-17.7" transform="translate(0.5)"/>
  <text class="cls-3" transform="translate(2.11 298.89)">A</text>
  <text class="cls-4" transform="translate(30.95 298.89)">U</text>
  <text class="cls-3" transform="translate(64.56 298.89)">T</text>
  <text class="cls-4" transform="translate(89.69 298.89)">O</text>
  <text class="cls-4" transform="translate(123.56 298.89)">C</text>
  <text class="cls-4" transform="translate(153.59 298.89)">ON<tspan x="67.52" y="0">S</tspan><tspan class="cls-5" x="94.19" y="0">T</tspan></text>
  <text class="cls-4" transform="translate(275.49 298.89)">R</text>
  <text class="cls-4" transform="translate(305.03 298.89)">U</text>
  <text class="cls-4" transform="translate(337.85 298.89)">C</text>
  <text class="cls-4" transform="translate(367.88 298.89)">CIÓN</text>
  <line class="cls-1" x1="394.3" y1="173.2" x2="394.3" y2="47.4"/>
  <line class="cls-1" x1="431.2" y1="173.1" x2="431.2" y2="47.2"/>
  <line class="cls-1" x1="399.4" y1="125.8" x2="399.4"/>
  <line class="cls-1" x1="426.3" y1="125.8" x2="426.3"/>
</svg>
