<svg id="Capa_1" data-name="Capa 1" xmlns="http://www.w3.org/2000/svg" viewBox="0 0 448 448" class="svgmodelo">
  <title>modelo</title>
  <g id="Checklist">
    <polygon points="411.87 408 388.13 408 400 435.69 411.87 408"/>
    <rect x="384" y="320" width="32" height="72"/>
    <path d="M424,128h16V104a8,8,0,0,0-16,0v24Z" transform="translate(-32 -32)"/>
    <path d="M456,144H416V336h32V160h8a8,8,0,0,1,8,8v80a8,8,0,0,0,16,0V168A24,24,0,0,0,456,144Z" transform="translate(-32 -32)"/>
    <path d="M144,299.31l-18.34,18.34A8,8,0,0,1,120,320h24V299.31Z" transform="translate(-32 -32)"/>
    <path d="M120,320a8,8,0,0,1-5.66-2.34l-16-16A8,8,0,0,1,96,296v24h24Z" transform="translate(-32 -32)"/>
    <path d="M96,296a8,8,0,0,1,13.66-5.66L120,300.69l24-24V272H96v24Z" transform="translate(-32 -32)"/>
    <path d="M144,395.31l-18.34,18.34A8,8,0,0,1,120,416h24V395.31Z" transform="translate(-32 -32)"/>
    <path d="M109.66,194.34L120,204.69l24-24V176H96v24A8,8,0,0,1,109.66,194.34Z" transform="translate(-32 -32)"/>
    <path d="M40,480H360a8,8,0,0,0,8-8V104a8,8,0,0,0-8-8h-8V456a8,8,0,0,1-8,8H56a8,8,0,0,1-8-8V96H40a8,8,0,0,0-8,8V472A8,8,0,0,0,40,480Z" transform="translate(-32 -32)"/>
    <path d="M120,416a8,8,0,0,1-5.66-2.34l-16-16A8,8,0,0,1,96,392v24h24Z" transform="translate(-32 -32)"/>
    <path d="M96,392a8,8,0,0,1,13.66-5.66L120,396.69l24-24V368H96v24Z" transform="translate(-32 -32)"/>
    <circle cx="168" cy="40" r="8"/>
    <path d="M114.34,221.66l-16-16A8,8,0,0,1,96,200v24h24A8,8,0,0,1,114.34,221.66Z" transform="translate(-32 -32)"/>
    <path d="M64,96V448H336V96H296v24a8,8,0,0,1-8,8H112a8,8,0,0,1-8-8V96H64ZM173.66,365.66L160,379.31V424a8,8,0,0,1-8,8H88a8,8,0,0,1-8-8V360a8,8,0,0,1,8-8h64a7.94,7.94,0,0,1,7.44,5.25l2.9-2.9A8,8,0,0,1,173.66,365.66Zm0-96L160,283.31V328a8,8,0,0,1-8,8H88a8,8,0,0,1-8-8V264a8,8,0,0,1,8-8h64a7.94,7.94,0,0,1,7.44,5.25l2.9-2.9A8,8,0,0,1,173.66,269.66ZM200,176h96a8,8,0,0,1,0,16H200A8,8,0,0,1,200,176Zm0,32h96a8,8,0,0,1,0,16H200A8,8,0,0,1,200,208Zm0,64h96a8,8,0,0,1,0,16H200A8,8,0,0,1,200,272Zm0,32h96a8,8,0,0,1,0,16H200A8,8,0,0,1,200,304Zm0,72h96a8,8,0,0,1,0,16H200A8,8,0,0,1,200,376Zm0,32h96a8,8,0,0,1,0,16H200A8,8,0,0,1,200,408ZM152,160a7.94,7.94,0,0,1,7.44,5.25l2.9-2.9a8,8,0,0,1,11.31,11.31L160,187.31V232a8,8,0,0,1-8,8H88a8,8,0,0,1-8-8V168a8,8,0,0,1,8-8h64Z" transform="translate(-32 -32)"/>
    <path d="M160,64H128a8,8,0,0,0-8,8v40H280V72a8,8,0,0,0-8-8H240a8,8,0,0,1-8-8,24,24,0,0,0-24-24H192a24,24,0,0,0-24,23.9s0,0.06,0,.1A8,8,0,0,1,160,64Zm40-16a24,24,0,1,1-24,24A24,24,0,0,1,200,48Z" transform="translate(-32 -32)"/>
    <path d="M144,203.31l-18.34,18.34A8,8,0,0,1,120,224h24V203.31Z" transform="translate(-32 -32)"/>
  </g>
</svg>
