<svg height="512" viewBox="0 0 64 64" width="512" xmlns="http://www.w3.org/2000/svg" class="svgplanta"><path d="m51 48h4v4h-4z"/><path d="m24.847 20-.667 4h4.522l-.57-4z"/><path d="m39 48h4v4h-4z"/><path d="m5.181 54h13.809l-4-28h-5.143z"/><path d="m10.847 20-.666 4h4.523l-.572-4z"/><path d="m4.847 56-.666 4h15.666l-.572-4z"/><path d="m35 60h25v-27.091l-11.431 7.913a1 1 0 0 1 -1.569-.822v-7.168l-12.459 8.009a1 1 0 0 1 -1.541-.841v-7.515l-14.238 5.777 3.105 21.738zm14-13a1 1 0 0 1 1-1h6a1 1 0 0 1 1 1v6a1 1 0 0 1 -1 1h-6a1 1 0 0 1 -1-1zm-12 0a1 1 0 0 1 1-1h6a1 1 0 0 1 1 1v6a1 1 0 0 1 -1 1h-6a1 1 0 0 1 -1-1zm-12 0a1 1 0 0 1 1-1h6a1 1 0 0 1 1 1v6a1 1 0 0 1 -1 1h-6a1 1 0 0 1 -1-1z"/><path d="m27 48h4v4h-4z"/><path d="m22.41 34.623 7.38-2.994-.802-5.629h-5.141z"/><path d="m27 16a1 1 0 0 1 -1-1 5.006 5.006 0 0 1 5-5h7a3 3 0 0 0 3-3 5.006 5.006 0 0 1 5-5h8a1 1 0 0 1 0 2h-8a3 3 0 0 0 -3 3 5.006 5.006 0 0 1 -5 5h-7a3 3 0 0 0 -3 3 1 1 0 0 1 -1 1z"/><path d="m12 16a1 1 0 0 1 -1-1 5.006 5.006 0 0 1 5-5h3a3 3 0 0 0 3-3 5.006 5.006 0 0 1 5-5h8a1 1 0 0 1 0 2h-8a3 3 0 0 0 -3 3 5.006 5.006 0 0 1 -5 5h-3a3 3 0 0 0 -3 3 1 1 0 0 1 -1 1z"/></svg>