<svg id="Capa_1" data-name="Capa 1" xmlns="http://www.w3.org/2000/svg" viewBox="0 0 448 448" class="svgwebinars">
  <title>webinars</title>
  <path d="M88,208H80a16,16,0,0,0,8,13.85V208Z" transform="translate(-32 -32)"/>
  <path d="M208,144H176a24,24,0,0,1,0,48h32V144Z" transform="translate(-32 -32)"/>
  <path d="M152,316.63V328a24,24,0,0,0,48,0V316.63A87.2,87.2,0,0,1,152,316.63Z" transform="translate(-32 -32)"/>
  <circle cx="144" cy="136" r="8"/>
  <path d="M152,168a24,24,0,0,1,24-24H144v48h32A24,24,0,0,1,152,168Z" transform="translate(-32 -32)"/>
  <path d="M96,336h16v96H96V336Z" transform="translate(-32 -32)"/>
  <circle cx="344" cy="320" r="32"/>
  <path d="M480,368V336H452.32a8,8,0,0,1-7.62-5.55,65.8,65.8,0,0,0-4.84-11.57,8,8,0,0,1,1.36-9.5l19.62-19.62-22.6-22.61-19.62,19.62a8,8,0,0,1-9.5,1.36,64.9,64.9,0,0,0-11.57-4.84,8,8,0,0,1-5.54-7.62V248H360v27.68a8,8,0,0,1-5.54,7.62,64.9,64.9,0,0,0-11.57,4.84,8,8,0,0,1-9.5-1.36l-19.62-19.62L291.2,289.76l19.62,19.62a8,8,0,0,1,1.36,9.5,65.8,65.8,0,0,0-4.84,11.57,8,8,0,0,1-7.66,5.55H272v32h27.68a8,8,0,0,1,7.62,5.55,65.8,65.8,0,0,0,4.84,11.57,8,8,0,0,1-1.36,9.5L291.2,414.24l22.6,22.61,19.62-19.62a8,8,0,0,1,9.5-1.36,64.9,64.9,0,0,0,11.57,4.84,8,8,0,0,1,5.5,7.62V456h32V428.32a8,8,0,0,1,5.54-7.62,64.9,64.9,0,0,0,11.57-4.84,8,8,0,0,1,9.5,1.36l19.62,19.62,22.6-22.61-19.62-19.62a8,8,0,0,1-1.36-9.5,65.8,65.8,0,0,0,4.84-11.57,8,8,0,0,1,7.62-5.55H480ZM376,400a48,48,0,1,1,48-48A48,48,0,0,1,376,400Z" transform="translate(-32 -32)"/>
  <path d="M248,232V208H104v24A72,72,0,0,0,248,232Z" transform="translate(-32 -32)"/>
  <path d="M168,32h16V96H168V32Z" transform="translate(-32 -32)"/>
  <path d="M80,144h48v-8a8,8,0,0,1,8-8h80a8,8,0,0,1,8,8v8h48a95.36,95.36,0,0,0-28.14-67.86A96.86,96.86,0,0,0,232,66V88a8,8,0,0,1-16,0V56.8a95.85,95.85,0,0,0-16-5.71V104a8,8,0,0,1-8,8H160a8,8,0,0,1-8-8V51a94.14,94.14,0,0,0-16,5.77V88a8,8,0,0,1-16,0V66.22A96.59,96.59,0,0,0,80,144Z" transform="translate(-32 -32)"/>
  <path d="M184,448h72v32H184V448Z" transform="translate(-32 -32)"/>
  <path d="M224,336h-8.8a40,40,0,0,1-78.4,0H128v96h96V336Z" transform="translate(-32 -32)"/>
  <path d="M295.42,387.34c-0.48-1.08-.94-2.19-1.39-3.34H272v29.43a7.87,7.87,0,0,1,2.18-4.85Z" transform="translate(-32 -32)"/>
  <path d="M240,336h16v96H240V336Z" transform="translate(-32 -32)"/>
  <path d="M96,448h72v32H96V448Z" transform="translate(-32 -32)"/>
  <path d="M320,453.23l-0.58.58a8,8,0,0,1-11.31,0L274.18,419.9A7.88,7.88,0,0,1,272,415v65h48V453.23Z" transform="translate(-32 -32)"/>
  <path d="M224,160v32h64V168a8,8,0,0,0-8-8H224Z" transform="translate(-32 -32)"/>
  <path d="M264,208v13.85A16,16,0,0,0,272,208h-8Z" transform="translate(-32 -32)"/>
  <path d="M32,480H80V336H72a40,40,0,0,0-40,40V480Z" transform="translate(-32 -32)"/>
  <path d="M64,168v24h64V160H72A8,8,0,0,0,64,168Z" transform="translate(-32 -32)"/>
</svg>
