<svg id="Capa_1" data-name="Capa 1" xmlns="http://www.w3.org/2000/svg" viewBox="0 0 1596.18 462.51">
  <defs>
    <style>
      .cls-1 {
        fill: #016380;
      }

      .cls-2 {
        fill: #a8a8a8;
      }
    </style>
  </defs>
  <title>logo-color</title>
  <rect class="cls-1" x="592.73" y="100.79" width="60.12" height="173.21"/>
  <g>
    <path class="cls-1" d="M721.4,121.65h54.69v31.91h0.64c12-25,36.06-35.92,63.37-35.92,24.7,0,45.06,10.65,54.37,33.25,14-23.29,37.08-33.25,61.71-33.25,50,0,61.4,28.26,61.4,75.17v102H957.52V201.75c0-19.58-7-34.2-24-34.2-21.38,0-34,16.92-34,54.18v73.14h-60V201.75c0-19.58-7-34.2-24.06-34.2-21.31,0-34,16.92-34,54.18v73.14h-60V121.65Z" transform="translate(-33.84 -20.86)"/>
    <path class="cls-1" d="M1191,171.19c-11-6.65-22-9.64-36.37-9.64-26,0-46,17.93-46,47.86C1108.63,237,1132,255,1158,255c13.67,0,27.39-3,37.39-8.29l1.28,44.54a162.76,162.76,0,0,1-48.94,7.59c-57.38,0-101.09-33.18-101.09-90.43,0-57.5,43.71-90.75,101.09-90.75,18,0,33.93,3,47.65,9.69Z" transform="translate(-33.84 -20.86)"/>
    <path class="cls-1" d="M1554.71,171.19c-11-6.65-22-9.64-36.37-9.64-26,0-46,17.93-46,47.86,0,27.63,23.34,45.56,49.4,45.56,13.65,0,27.3-3,37.34-8.29l1.33,44.54a163.19,163.19,0,0,1-49.07,7.59c-57.38,0-101-33.18-101-90.43,0-57.5,43.64-90.75,101-90.75,18,0,34.07,3,47.74,9.69Z" transform="translate(-33.84 -20.86)"/>
    <path class="cls-1" d="M1224.21,319.17a73.4,73.4,0,0,0,23.67,3.63c14.76,0,26-8.67,30.38-24l-70.38-177.16h64.71l37.39,113h0.63l35.67-113h60.06l-63.68,161.21c-17,43.59-30,85.84-85.06,85.84a174.74,174.74,0,0,1-37.34-4Z" transform="translate(-33.84 -20.86)"/>
    <path class="cls-2" d="M362.64,151.45a65.46,65.46,0,0,1,102.86,0l92.11-53.07a171.64,171.64,0,0,0-287.07,0Z" transform="translate(-33.84 -20.86)"/>
    <path class="cls-2" d="M404.59,256.32a65.06,65.06,0,0,1-51.37-88.63l-92.11-52.94a169.8,169.8,0,0,0-18.58,77.08c0,91.22,71.77,165.52,162.05,170.43V256.32Z" transform="translate(-33.84 -20.86)"/>
    <path class="cls-1" d="M566.95,114.75l-92,52.94a65.06,65.06,0,0,1-51.44,88.63V362.26c90.29-4.86,162.06-79.21,162.06-170.44a169,169,0,0,0-18.58-77.08" transform="translate(-33.84 -20.86)"/>
    <path class="cls-1" d="M1593.11,133.32a21.55,21.55,0,1,0,15.28-6.35,20.83,20.83,0,0,0-15.28,6.35m2.78,28.37a19.64,19.64,0,0,1,0-26.18,17.37,17.37,0,0,1,25,0,19.71,19.71,0,0,1,0,26.22,17.43,17.43,0,0,1-25,0m4.23-.45h4.13V150h3.47l7.05,11.21,4.41,0L1612,150a6.14,6.14,0,0,0,4.76-1.95,7.25,7.25,0,0,0,1.77-5.07q0-7.13-8.69-7.13h-9.71v25.35Zm4.13-22.11h4.92a7.28,7.28,0,0,1,3.75.87,3.06,3.06,0,0,1,1.47,2.85c0,1.56-.44,2.6-1.29,3.15a7.54,7.54,0,0,1-3.92.81h-4.92v-7.67Z" transform="translate(-33.84 -20.86)"/>
  </g>
  <path class="cls-1" d="M294.53,69.31S150,123.64,65.76,248.64C53.22,266.31,36.51,297,35.81,312.31c-1.74,17.33,1,29.33,1,29.33s4.53-32.33,52.58-66S216.56,237.42,205.7,238s42.17-3.36,78.38,5.64c40.43,9.06,63.48,23.91,76.37,32.91,37.09,27.28,35.27,49.3,35.27,49.3S404.22,302,384,269.31c-19.85-30-57.45-46.67-57.45-46.67C300.45,209,258,202,226.28,201.31c-38.65-1.33-85.31,15-85.31,15S164.3,188,194.25,167.64c32.73-25.33,60.15-38,60.15-38C267.33,93.67,294.53,69.31,294.53,69.31Z" transform="translate(-33.84 -20.86)"/>
  <path class="cls-1" d="M33.94,354.31S31.5,387,50.39,414.38c16,23.23,53.34,48.16,83.84,57.59,57.11,17.67,116.3,11.33,144.85,4,22.77-5.85,67.55-19.67,102.37-56.33,19-20,22-38.36,23.68-43.67,6.54-20.64-.54-43.31-0.54-43.31-5.11,11.39-9.91,46.64-53.09,76-34.81,23.65-74.86,35-125.35,38.33-33.39,2.2-94.88-5.29-136.15-29.67C45.32,390.92,36.38,362,33.94,354.31Z" transform="translate(-33.84 -20.86)"/>
  <g>
    <path class="cls-1" d="M672.82,360H639.06L633,373.83h-6l26-58.86h6l26,58.86h-6Zm-2.4-5.31-14.48-32.9-14.48,32.9h29Z" transform="translate(-33.84 -20.86)"/>
    <path class="cls-1" d="M695.7,315h5.48l37.7,50V315h5.48v58.86h-5.48l-37.7-50v50H695.7V315Z" transform="translate(-33.84 -20.86)"/>
    <path class="cls-1" d="M759.2,315h5.48v58.86H759.2V315Z" transform="translate(-33.84 -20.86)"/>
    <path class="cls-1" d="M832.11,315l-26,58.86h-6l-26-58.86h6l23,52.09,23-52.09h6Z" transform="translate(-33.84 -20.86)"/>
    <path class="cls-1" d="M847.19,320.2v21h32.21v5.31H847.19v22.1h35.47v5.23h-41V315h41v5.23H847.19Z" transform="translate(-33.84 -20.86)"/>
    <path class="cls-1" d="M922.76,351.73l15.59,22.1H932l-15.34-21.76h-17v21.76h-5.48V315h24.16c12.08,0,21.25,7.71,21.25,18.59C939.56,343.08,932.62,350.1,922.76,351.73Zm-23.13-4.88h17.74c9.85,0,16.71-5.14,16.71-13.28s-6.85-13.37-16.71-13.37H899.63v26.65Z" transform="translate(-33.84 -20.86)"/>
    <path class="cls-1" d="M946.67,365.44l3.43-4.28a27.73,27.73,0,0,0,20,8.57c9.34,0,14.74-5.14,14.74-11.14,0-6.43-5.4-9.34-16.54-11.91-12.42-2.91-19.28-6.77-19.28-16,0-9.6,8.22-16.79,19.45-16.79,8.23,0,15,3.34,20.56,8.4l-3.43,4.28a25.06,25.06,0,0,0-17.39-7.63c-8,0-13.62,5.06-13.62,11.31,0,5.91,5.57,8.48,16.45,11.14,12.08,2.83,19.36,7.11,19.36,16.71,0,9.42-7.45,16.71-20.48,16.71A32.46,32.46,0,0,1,946.67,365.44Z" transform="translate(-33.84 -20.86)"/>
    <path class="cls-1" d="M1043.58,360h-33.76l-6.08,13.88h-6l26-58.86h6l26,58.86h-6Zm-2.4-5.31-14.48-32.9-14.48,32.9h29Z" transform="translate(-33.84 -20.86)"/>
    <path class="cls-1" d="M1093.79,351.73l15.59,22.1H1103l-15.34-21.76h-17v21.76h-5.48V315h24.16c12.08,0,21.25,7.71,21.25,18.59C1110.58,343.08,1103.64,350.1,1093.79,351.73Zm-23.13-4.88h17.74c9.85,0,16.71-5.14,16.71-13.28s-6.85-13.37-16.71-13.37h-17.74v26.65Z" transform="translate(-33.84 -20.86)"/>
    <path class="cls-1" d="M1120.53,315H1126v58.86h-5.48V315Z" transform="translate(-33.84 -20.86)"/>
    <path class="cls-1" d="M1137.23,344.36c0-16.54,13.88-30.42,30.16-30.42s30.07,13.88,30.07,30.42-13.71,30.5-30.07,30.5S1137.23,360.9,1137.23,344.36Zm54.66,0c0-13.71-11.14-25.27-24.5-25.27s-24.59,11.57-24.59,25.27,11.22,25.36,24.59,25.36S1191.9,358.16,1191.9,344.36Z" transform="translate(-33.84 -20.86)"/>
  </g>
</svg>
