<svg id="Capa_1" data-name="Capa 1" xmlns="http://www.w3.org/2000/svg" viewBox="0 0 426.63 426.08" class="svgplanta">
  <defs>
    <style>
      .cls-1 {
        fill: #fff;
      }
    </style>
  </defs>
  <title>imcyc</title>
  <path class="cls-1" d="M158,172.24a81.29,81.29,0,0,1,127.9,0l114.59-66.17C362.36,47.86,296.68,9.29,221.93,9.29S81.47,47.86,43.37,106.07Z" transform="translate(-8.6 -9.29)"/>
  <path class="cls-1" d="M210.17,303.17a81.25,81.25,0,0,1-63.94-110.62L31.7,126.44A211.94,211.94,0,0,0,8.6,222.63c0,113.85,89.24,206.6,201.57,212.74V303.17Z" transform="translate(-8.6 -9.29)"/>
  <path class="cls-1" d="M412.13,126.44L297.6,192.55a81.31,81.31,0,0,1-63.95,110.62v132.2c112.3-6.11,201.57-98.89,201.57-212.74A211.93,211.93,0,0,0,412.13,126.44Z" transform="translate(-8.6 -9.29)"/>
</svg>
