<?xml version="1.0" encoding="utf-8"?>
<!-- Generator: Adobe Illustrator 19.2.1, SVG Export Plug-In . SVG Version: 6.00 Build 0)  -->
<svg version="1.1" id="Capa_1" xmlns="http://www.w3.org/2000/svg" xmlns:xlink="http://www.w3.org/1999/xlink" x="0px" y="0px"
	 viewBox="0 0 2212 534" style="enable-background:new 0 0 2212 534;" xml:space="preserve" class="svgredcyc">
<style type="text/css">
	.st0{fill:#FF0000;}
	.st1{fill:#FFFFFF;}
	.st2{enable-background:new    ;}
	.st3{fill:none;stroke:#FF0000;stroke-miterlimit:10;}
</style>
<g id="Capa_4">
	<rect x="23" y="451.4" class="st0" width="406" height="73.6"/>
</g>
<g id="Capa_1_1_">
	<g id="Capa_2_copia_1_">
		<g>
			<path class="st0" d="M1617.4,144.1v20h-80.7v-11.8c0-18.9-2.8-33.5-8.2-43.9c-5.5-10.4-17.7-15.6-36.5-15.6
				c-14.5,0-25.6,8.4-33.3,25.2c-7.7,16.8-11.5,51.8-11.5,105c0,64.7,2.7,106.3,8,124.8s18.8,27.8,40.4,27.8
				c14.9,0,25.5-5.7,31.8-17.1s9.4-31.4,9.4-60.1h80.7c0,45.8-7,80.1-20.9,103s-48.4,34.3-103.4,34.3c-55.4,0-90.6-13.8-105.8-41.3
				c-15.1-27.5-22.7-84.4-22.7-170.5c0-70.4,9-120.2,27-149.3s53.4-43.7,106.2-43.7c41.4,0,71.7,9.8,90.9,29.5
				C1607.8,80.1,1617.4,108,1617.4,144.1z"/>
			<path class="st0" d="M2185.4,144.1v20h-80.7v-11.8c0-18.9-2.8-33.5-8.2-43.9c-5.5-10.4-17.7-15.6-36.5-15.6
				c-14.5,0-25.6,8.4-33.3,25.2c-7.7,16.8-11.5,51.8-11.5,105c0,64.7,2.7,106.3,8,124.8s18.8,27.8,40.4,27.8
				c14.9,0,25.5-5.7,31.8-17.1s9.4-31.4,9.4-60.1h80.7c0,45.8-7,80.1-20.9,103s-48.4,34.3-103.4,34.3c-55.4,0-90.6-13.8-105.8-41.3
				c-15.1-27.5-22.7-84.4-22.7-170.5c0-70.4,9-120.2,27-149.3s53.4-43.7,106.2-43.7c41.4,0,71.7,9.8,90.9,29.5
				C2175.8,80.1,2185.4,108,2185.4,144.1z"/>
		</g>
		<g>
			<rect x="1731.1" y="277.1" class="st0" width="83.1" height="153.4"/>
			<polygon class="st0" points="1718.7,37.5 1632.1,37.5 1731.1,277.1 1777,203.1 			"/>
			<polygon class="st0" points="1836,37.5 1777,203.1 1814.2,277.1 1913.1,37.5 			"/>
		</g>
	</g>
	<g id="Capa_2">
	</g>
	<g id="Capa_3">
		<path class="st0" d="M1309.4,120.6c-7.7-18.3-18.6-36.1-31.8-49.8c-31.8-31.5-75.5-36.6-84.1-37.8c-10-1.1-18.2-1.1-26.8-0.6
			h-41.4v68.1c11.8-0.6,23.6-1.7,35.5-1.7c3.6,0,40.5-1.1,62.3,16.6c19.1,16,37.3,52.7,37.3,117.3c0,69.3-22.3,104.7-43.2,119.1
			c-23.6,16-57.7,16.6-91.8,14.9V101.1h-68.6v267.1h68.2v68.4h33c30.9-0.6,58.2-4,79.6-13.7c29.6-13.7,46.4-37.2,54.1-48.7
			c9.1-13.2,13.6-22.3,16.4-29.2c20-45.8,21.8-100.7,21.8-115.6C1329.9,176.1,1317.1,138.9,1309.4,120.6z"/>
		<g>
			<rect x="862.5" y="190.5" class="st0" width="133.7" height="68.7"/>
			<polygon class="st0" points="862.5,190.5 862.5,98.9 1006.2,98.9 1006.2,32.5 791.1,32.5 791.1,190.5 			"/>
			<polygon class="st0" points="862.5,367.9 862.5,259.8 791.1,259.8 791.1,436.6 1012.1,436.6 1012.1,367.9 			"/>
		</g>
		<g>
			<rect x="478.8" y="269.3" class="st0" width="69.1" height="167.3"/>
			<path class="st0" d="M722,339.3c-4.1-38.9-4.5-54.9-12.3-74.4c-2.3-5.2-3.6-8-6.8-12.6c-3.6-5.2-8.2-8.6-9.5-9.7
				c-11.4-9.2-18.6-9.7-22.7-10.9c10.9-4.6,15.5-6.9,20.9-10.9c5.5-3.4,11.4-9.7,13.2-12c2.7-2.9,8.6-9.2,13.2-18.3
				c11.8-22.9,11.4-50.4,11.4-55.5c0-27.5-6.4-45.2-11.8-56.1c-3.2-6.9-6.8-12-8.6-14.3c-21.4-27.5-54.1-30.3-57.7-30.9
				c-11.4-1.1-22.7-1.1-33.6-1.1H478.8v171.7h69.1V94.9h58.6c11.8,0.6,20.9,0.6,33.2,9.7c2.7,2.3,4.1,2.9,6.8,6.3
				c12.3,13.2,12.3,30.9,12.3,34.9c0,13.2-0.5,45.8-34.1,55.5c-10.5,2.9-21.8,2.3-25,2.9h-51.8v64.7h52.3
				c17.7,0.6,26.8,2.9,34.6,11.4c12.7,13.7,13.2,32.1,16.8,64.1c4.1,39.5,6.8,52.7,17.3,92.2h77.3
				C735.2,410.8,727.5,389.6,722,339.3z"/>
		</g>
	</g>
	<rect x="23" y="32.6" class="st0" width="406" height="418.8"/>
</g>
<g id="Capa_2_1_">
	<path class="st1" d="M169.5,234.9c12.8-16.3,32.7-26.8,55-26.8c22.4,0,42.2,10.5,55.1,26.8l98.6-56.9
		c-32.8-50.1-89.3-83.3-153.6-83.3c-64.4,0-120.9,33.2-153.7,83.3L169.5,234.9z"/>
	<path class="st1" d="M214.4,347.6c-33.9-4.9-60-34-60-69.3c0-9.2,1.8-17.9,5-25.9l-98.6-56.9C48.2,220.4,41,248.4,41,278.2
		c0,98,76.8,177.8,173.5,183.1V347.6H214.4z"/>
	<path class="st1" d="M388.2,195.5l-98.6,56.9c3.2,8,5,16.7,5,25.9c0,35.3-26.1,64.4-60,69.3v113.8c96.6-5.3,173.5-85.1,173.5-183.1
		C408.1,248.4,400.8,220.4,388.2,195.5z"/>
</g>
<g id="Capa_3_1_">
	<g class="st2">
		<path class="st0" d="M488.1,470.4v37.3h35.7v-12.9l8.6,1.8v6.1c0,2.4-0.2,4.4-0.5,5.9c-0.4,1.6-1,2.8-1.9,3.7
			c-0.9,0.9-2.2,1.6-3.7,1.9c-1.5,0.4-3.5,0.5-5.8,0.5h-28.8c-2.3,0-4.3-0.2-5.8-0.5c-1.5-0.4-2.8-1-3.7-1.9c-0.9-0.9-1.6-2.2-2-3.7
			c-0.4-1.6-0.6-3.5-0.6-5.9v-27.1c0-2.4,0.2-4.4,0.6-5.9c0.4-1.6,1.1-2.8,2-3.7c0.9-0.9,2.2-1.6,3.7-1.9c1.5-0.4,3.5-0.5,5.8-0.5
			h28.8c2.3,0,4.3,0.2,5.8,0.5c1.5,0.4,2.8,1,3.7,1.9c0.9,0.9,1.6,2.2,1.9,3.7c0.4,1.6,0.5,3.5,0.5,5.9v4.9l-8.6,1.6v-11.7H488.1z"
			/>
		<path class="st0" d="M554.3,475.6c0-2.4,0.2-4.4,0.6-5.9c0.4-1.6,1.1-2.8,2-3.7c0.9-0.9,2.2-1.6,3.7-1.9c1.5-0.4,3.5-0.5,5.8-0.5
			H602c2.3,0,4.3,0.2,5.8,0.5c1.5,0.4,2.8,1,3.7,1.9c0.9,0.9,1.6,2.2,1.9,3.7c0.4,1.6,0.5,3.5,0.5,5.9v27.1c0,2.4-0.2,4.4-0.5,5.9
			c-0.4,1.6-1,2.8-1.9,3.7c-0.9,0.9-2.2,1.6-3.7,1.9c-1.5,0.4-3.5,0.5-5.8,0.5h-35.6c-2.3,0-4.3-0.2-5.8-0.5c-1.5-0.4-2.8-1-3.7-1.9
			c-0.9-0.9-1.6-2.2-2-3.7c-0.4-1.6-0.6-3.5-0.6-5.9V475.6z M605.5,507.7v-37.3h-42.6v37.3H605.5z"/>
		<path class="st0" d="M647.1,472.6c0.2,1.5,0.3,2.9,0.3,4.2c0,1.3,0,2.4,0,3.4v34.7h-7.4v-51.5h7.1l25,33.5l23.3-33.5h7.9v51.5
			h-7.9v-34.7c0-0.6,0-1.5,0.1-2.8c0.1-1.3,0.2-2.9,0.3-4.8c-1.3,2.7-2.3,4.5-3.1,5.6l-19.6,28.6h-2.2L650.5,479
			c-0.5-0.7-1.1-1.6-1.7-2.5C648.2,475.5,647.6,474.2,647.1,472.6z"/>
		<path class="st0" d="M730.1,463.4h41.5c3.8,0,6.5,0.8,8.3,2.3c1.7,1.5,2.6,4.1,2.6,7.7v11.5c0,3.6-0.9,6.1-2.6,7.7
			c-1.7,1.5-4.5,2.3-8.3,2.3h-32.9v20h-8.6V463.4z M738.7,470.1V488h29.5c1.9,0,3.3-0.3,4.2-1c0.9-0.7,1.3-2.1,1.3-4.3v-7.2
			c0-2.1-0.4-3.6-1.3-4.3c-0.9-0.7-2.3-1.1-4.2-1.1H738.7z"/>
		<path class="st0" d="M821.6,463.4h9.2l28.6,51.5h-9.5l-6.6-12.7h-34.8l-6.6,12.7h-8.5L821.6,463.4z M839.8,495.6l-13.9-26.3
			l-13.9,26.3H839.8z"/>
		<path class="st0" d="M876,463.4h41.5c3.8,0,6.5,0.8,8.3,2.3c1.7,1.5,2.6,4.1,2.6,7.7v11.5c0,3.6-0.9,6.1-2.6,7.7
			c-1.7,1.5-4.5,2.3-8.3,2.3h-7.6l23.5,20h-12.8l-20.9-20h-15.2v20H876V463.4z M884.6,470.1v18h29.5c1.9,0,3.3-0.3,4.2-1
			c0.9-0.7,1.3-2.1,1.3-4.3v-7.5c0-2.1-0.4-3.5-1.3-4.2s-2.3-1-4.2-1H884.6z"/>
		<path class="st0" d="M971.9,514.9h-8.6v-44.5h-23.5v-7h55.7v7h-23.6V514.9z"/>
		<path class="st0" d="M1010,463.4h8.6v51.5h-8.6V463.4z"/>
		<path class="st0" d="M1045.3,463.4h41.5c3.8,0,6.5,0.8,8.3,2.3c1.7,1.5,2.6,4.1,2.6,7.7v11.5c0,3.6-0.9,6.1-2.6,7.7
			c-1.7,1.5-4.5,2.3-8.3,2.3h-7.6l23.5,20H1090l-20.9-20h-15.2v20h-8.6V463.4z M1053.9,470.1v18h29.5c1.9,0,3.3-0.3,4.2-1
			c0.9-0.7,1.3-2.1,1.3-4.3v-7.5c0-2.1-0.4-3.5-1.3-4.2s-2.3-1-4.2-1H1053.9z"/>
		<path class="st0" d="M1158.6,463.4h49.6v6.9h-41v14.4h25v6.8h-25v16.4h41.4v7.1h-50V463.4z"/>
		<path class="st0" d="M1229,463.4h8.6v44.3h39v7.2H1229V463.4z"/>
		<path class="st0" d="M1339.3,470.4v37.3h35.7v-12.9l8.6,1.8v6.1c0,2.4-0.2,4.4-0.5,5.9c-0.4,1.6-1,2.8-1.9,3.7
			c-0.9,0.9-2.2,1.6-3.7,1.9c-1.5,0.4-3.5,0.5-5.8,0.5h-28.8c-2.3,0-4.3-0.2-5.8-0.5c-1.5-0.4-2.8-1-3.7-1.9c-0.9-0.9-1.6-2.2-2-3.7
			c-0.4-1.6-0.6-3.5-0.6-5.9v-27.1c0-2.4,0.2-4.4,0.6-5.9c0.4-1.6,1.1-2.8,2-3.7c0.9-0.9,2.2-1.6,3.7-1.9c1.5-0.4,3.5-0.5,5.8-0.5
			h28.8c2.3,0,4.3,0.2,5.8,0.5c1.5,0.4,2.8,1,3.7,1.9c0.9,0.9,1.6,2.2,1.9,3.7c0.4,1.6,0.5,3.5,0.5,5.9v4.9l-8.6,1.6v-11.7H1339.3z"
			/>
		<path class="st0" d="M1405.5,475.6c0-2.4,0.2-4.4,0.6-5.9c0.4-1.6,1.1-2.8,2-3.7c0.9-0.9,2.2-1.6,3.7-1.9c1.5-0.4,3.5-0.5,5.8-0.5
			h35.6c2.3,0,4.3,0.2,5.8,0.5c1.5,0.4,2.8,1,3.7,1.9c0.9,0.9,1.6,2.2,1.9,3.7c0.4,1.6,0.5,3.5,0.5,5.9v27.1c0,2.4-0.2,4.4-0.5,5.9
			c-0.4,1.6-1,2.8-1.9,3.7c-0.9,0.9-2.2,1.6-3.7,1.9c-1.5,0.4-3.5,0.5-5.8,0.5h-35.6c-2.3,0-4.3-0.2-5.8-0.5c-1.5-0.4-2.8-1-3.7-1.9
			c-0.9-0.9-1.6-2.2-2-3.7c-0.4-1.6-0.6-3.5-0.6-5.9V475.6z M1456.6,507.7v-37.3h-42.6v37.3H1456.6z"/>
		<path class="st0" d="M1491.2,463.4h5.4l38.5,34.4c1.8,1.6,3.8,3.8,5.9,6.5c-0.4-2.4-0.6-4.6-0.7-6.7c-0.1-2.1-0.1-4.1-0.1-5.9
			v-28.2h7.9v51.5h-4.8l-39.6-35.8c-0.7-0.7-1.6-1.5-2.5-2.3c-0.9-0.8-1.8-2-2.7-3.4c0.3,1.9,0.4,3.8,0.5,5.6
			c0.1,1.8,0.1,3.7,0.1,5.6v30.3h-7.9V463.4z"/>
		<path class="st0" d="M1574.1,475.6c0-2.4,0.2-4.4,0.6-5.9c0.4-1.6,1.1-2.8,2-3.7c0.9-0.9,2.2-1.6,3.7-1.9c1.5-0.4,3.5-0.5,5.8-0.5
			h35.6c2.3,0,4.3,0.2,5.8,0.5c1.5,0.4,2.8,1,3.7,1.9c0.9,0.9,1.6,2.2,1.9,3.7c0.4,1.6,0.5,3.5,0.5,5.9v27.1c0,2.4-0.2,4.4-0.5,5.9
			c-0.4,1.6-1,2.8-1.9,3.7c-0.9,0.9-2.2,1.6-3.7,1.9c-1.5,0.4-3.5,0.5-5.8,0.5h-35.6c-2.3,0-4.3-0.2-5.8-0.5c-1.5-0.4-2.8-1-3.7-1.9
			c-0.9-0.9-1.6-2.2-2-3.7c-0.4-1.6-0.6-3.5-0.6-5.9V475.6z M1625.3,507.7v-37.3h-42.6v37.3H1625.3z"/>
		<path class="st0" d="M1667.7,470.4v37.3h35.7v-12.9l8.6,1.8v6.1c0,2.4-0.2,4.4-0.5,5.9c-0.4,1.6-1,2.8-1.9,3.7
			c-0.9,0.9-2.2,1.6-3.7,1.9c-1.5,0.4-3.5,0.5-5.8,0.5h-28.8c-2.3,0-4.3-0.2-5.8-0.5c-1.5-0.4-2.8-1-3.7-1.9c-0.9-0.9-1.6-2.2-2-3.7
			c-0.4-1.6-0.6-3.5-0.6-5.9v-27.1c0-2.4,0.2-4.4,0.6-5.9c0.4-1.6,1.1-2.8,2-3.7c0.9-0.9,2.2-1.6,3.7-1.9c1.5-0.4,3.5-0.5,5.8-0.5
			h28.8c2.3,0,4.3,0.2,5.8,0.5c1.5,0.4,2.8,1,3.7,1.9c0.9,0.9,1.6,2.2,1.9,3.7c0.4,1.6,0.5,3.5,0.5,5.9v4.9l-8.6,1.6v-11.7H1667.7z"
			/>
		<path class="st0" d="M1734.6,463.4h8.6v51.5h-8.6V463.4z"/>
		<path class="st0" d="M1776.9,472.6c0.2,1.5,0.3,2.9,0.3,4.2c0,1.3,0,2.4,0,3.4v34.7h-7.4v-51.5h7.1l25,33.5l23.3-33.5h7.9v51.5
			h-7.9v-34.7c0-0.6,0-1.5,0.1-2.8c0.1-1.3,0.2-2.9,0.3-4.8c-1.3,2.7-2.3,4.5-3.1,5.6l-19.6,28.6h-2.2l-20.4-27.8
			c-0.5-0.7-1.1-1.6-1.7-2.5C1778,475.5,1777.5,474.2,1776.9,472.6z"/>
		<path class="st0" d="M1860,463.4h8.6v51.5h-8.6V463.4z"/>
		<path class="st0" d="M1895.3,463.4h49.6v6.9h-41v14.4h25v6.8h-25v16.4h41.4v7.1h-50V463.4z"/>
		<path class="st0" d="M1965.7,463.4h5.4l38.5,34.4c1.8,1.6,3.8,3.8,5.9,6.5c-0.4-2.4-0.6-4.6-0.7-6.7c-0.1-2.1-0.1-4.1-0.1-5.9
			v-28.2h7.9v51.5h-4.8l-39.6-35.8c-0.7-0.7-1.6-1.5-2.5-2.3c-0.9-0.8-1.8-2-2.7-3.4c0.3,1.9,0.4,3.8,0.5,5.6
			c0.1,1.8,0.1,3.7,0.1,5.6v30.3h-7.9V463.4z"/>
		<path class="st0" d="M2069.2,514.9h-8.6v-44.5h-23.5v-7h55.7v7h-23.6V514.9z"/>
		<path class="st0" d="M2106.6,475.6c0-2.4,0.2-4.4,0.6-5.9c0.4-1.6,1.1-2.8,2-3.7c0.9-0.9,2.2-1.6,3.7-1.9c1.5-0.4,3.5-0.5,5.8-0.5
			h35.6c2.3,0,4.3,0.2,5.8,0.5c1.5,0.4,2.8,1,3.7,1.9c0.9,0.9,1.6,2.2,1.9,3.7c0.4,1.6,0.5,3.5,0.5,5.9v27.1c0,2.4-0.2,4.4-0.5,5.9
			c-0.4,1.6-1,2.8-1.9,3.7c-0.9,0.9-2.2,1.6-3.7,1.9c-1.5,0.4-3.5,0.5-5.8,0.5h-35.6c-2.3,0-4.3-0.2-5.8-0.5c-1.5-0.4-2.8-1-3.7-1.9
			c-0.9-0.9-1.6-2.2-2-3.7c-0.4-1.6-0.6-3.5-0.6-5.9V475.6z M2157.7,507.7v-37.3h-42.6v37.3H2157.7z"/>
	</g>
	<line class="st3" x1="429" y1="451.4" x2="2170" y2="451.4"/>
</g>
</svg>
