<svg id="Capa_1" data-name="Capa 1" xmlns="http://www.w3.org/2000/svg" viewBox="0 0 478.98 309.22" class="svgautoconstruccion">
  <defs>
    <style>
      .cls-1 {
        fill: #016380;
      }

      .cls-2, .cls-3 {
        fill: #a8a8a8;
      }

      .cls-3 {
        font-size: 44.16px;
        font-family: Raleway;
      }

      .cls-4 {
        letter-spacing: -1px;
      }

      .cls-5 {
        fill: none;
        stroke: #a8a8a8;
        stroke-miterlimit: 10;
      }
    </style>
  </defs>
  <title>logo-autoconstruccion</title>
  <g>
    <polygon class="cls-1" points="204.01 47.61 141.55 47.61 28.41 203.11 0 203.11 0 242.13 62.4 242.13 90.81 203.11 138.69 137.29 206.63 137.04 254.69 203.11 283.09 242.13 345.56 242.13 345.56 203.11 317.15 203.11 204.01 47.61"/>
    <polygon class="cls-2" points="450.17 203.11 431.79 177.86 431.79 90.03 392.78 90.03 392.78 124.24 367.5 89.51 305.08 89.56 288.41 112.45 319.6 155.32 352.74 155.05 387.72 203.11 387.66 203.11 416.07 242.13 478.53 242.13 478.53 203.11 450.17 203.11"/>
  </g>
  <path class="cls-2" d="M178.63,271.49a15.1,15.1,0,0,1,23.73,0l21.25-12.24a39.6,39.6,0,0,0-66.23,0Z" transform="translate(-17.7 -77.73)"/>
  <path class="cls-2" d="M188.31,295.68a15,15,0,0,1-11.85-20.45L155.21,263a39.3,39.3,0,0,0,33.1,57.1V295.68Z" transform="translate(-17.7 -77.73)"/>
  <path class="cls-1" d="M225.77,263l-21.23,12.21a15,15,0,0,1-11.87,20.45v24.44a39.45,39.45,0,0,0,37.39-39.32A39,39,0,0,0,225.77,263" transform="translate(-17.7 -77.73)"/>
  <text class="cls-3" transform="translate(1.61 298.89)"><tspan class="cls-4">A</tspan><tspan x="28.84" y="0">U</tspan><tspan class="cls-4" x="62.45" y="0">T</tspan><tspan x="87.58" y="0">O</tspan><tspan class="cls-1" x="121.45" y="0">C</tspan><tspan class="cls-1" x="151.48" y="0">ONST</tspan><tspan class="cls-1" x="273.38" y="0">R</tspan><tspan class="cls-1" x="302.92" y="0">U</tspan><tspan class="cls-1" x="335.74" y="0">C</tspan><tspan class="cls-1" x="365.77" y="0">CIÓN</tspan></text>
  <line class="cls-5" x1="393.78" y1="173.21" x2="393.78" y2="47.38"/>
  <line class="cls-5" x1="430.73" y1="173.08" x2="430.73" y2="47.25"/>
  <line class="cls-5" x1="398.86" y1="125.82" x2="398.86"/>
  <line class="cls-5" x1="425.79" y1="125.82" x2="425.79"/>
</svg>
