<svg id="Capa_1" data-name="Capa 1" xmlns="http://www.w3.org/2000/svg" viewBox="0 0 2162.5 494.1" class="svgredcyc">
  <defs>
    <style>
      .cls-1 {
        fill: red;
      }

      .cls-2, .cls-4 {
        fill: #fff;
      }

      .cls-3 {
        isolation: isolate;
      }

      .cls-4 {
        stroke: #fff;
        stroke-miterlimit: 10;
      }
    </style>
  </defs>
  <title>logo-redcyc</title>
  <g id="Capa_4" data-name="Capa 4">
    <rect class="cls-1" y="420.5" width="406" height="73.6"/>
  </g>
  <g id="Capa_1-2" data-name="Capa 1">
    <g id="Capa_2_copia" data-name="Capa 2 copia">
      <g>
        <path class="cls-2" d="M1617.4,144.1v20h-80.7V152.3c0-18.9-2.8-33.5-8.2-43.9s-17.7-15.6-36.5-15.6q-21.75,0-33.3,25.2t-11.5,105q0,97.05,8,124.8t40.4,27.8q22.35,0,31.8-17.1t9.4-60.1h80.7q0,68.7-20.9,103t-103.4,34.3q-83.1,0-105.8-41.3t-22.7-170.5q0-105.6,27-149.3t106.2-43.7q62.1,0,90.9,29.5C1607.8,80.1,1617.4,108,1617.4,144.1Z" transform="translate(-23 -30.9)"/>
        <path class="cls-2" d="M2185.4,144.1v20h-80.7V152.3c0-18.9-2.8-33.5-8.2-43.9s-17.7-15.6-36.5-15.6q-21.75,0-33.3,25.2t-11.5,105q0,97.05,8,124.8t40.4,27.8q22.35,0,31.8-17.1t9.4-60.1h80.7q0,68.7-20.9,103t-103.4,34.3q-83.1,0-105.8-41.3t-22.7-170.5q0-105.6,27-149.3t106.2-43.7q62.1,0,90.9,29.5C2175.8,80.1,2185.4,108,2185.4,144.1Z" transform="translate(-23 -30.9)"/>
      </g>
      <g>
        <rect class="cls-2" x="1708.1" y="246.2" width="83.1" height="153.4"/>
        <polygon class="cls-2" points="1695.7 6.6 1609.1 6.6 1708.1 246.2 1754 172.2 1695.7 6.6"/>
        <polygon class="cls-2" points="1813 6.6 1754 172.2 1791.2 246.2 1890.1 6.6 1813 6.6"/>
      </g>
    </g>
    <g id="Capa_3" data-name="Capa 3">
      <path class="cls-2" d="M1309.4,120.6c-7.7-18.3-18.6-36.1-31.8-49.8-31.8-31.5-75.5-36.6-84.1-37.8a152.79,152.79,0,0,0-26.8-.6h-41.4v68.1c11.8-.6,23.6-1.7,35.5-1.7,3.6,0,40.5-1.1,62.3,16.6,19.1,16,37.3,52.7,37.3,117.3,0,69.3-22.3,104.7-43.2,119.1-23.6,16-57.7,16.6-91.8,14.9V101.1h-68.6V368.2H1125v68.4h33c30.9-.6,58.2-4,79.6-13.7,29.6-13.7,46.4-37.2,54.1-48.7,9.1-13.2,13.6-22.3,16.4-29.2,20-45.8,21.8-100.7,21.8-115.6C1329.9,176.1,1317.1,138.9,1309.4,120.6Z" transform="translate(-23 -30.9)"/>
      <g>
        <rect class="cls-2" x="839.5" y="159.6" width="133.7" height="68.7"/>
        <polygon class="cls-2" points="839.5 159.6 839.5 68 983.2 68 983.2 1.6 768.1 1.6 768.1 159.6 839.5 159.6"/>
        <polygon class="cls-2" points="839.5 337 839.5 228.9 768.1 228.9 768.1 405.7 989.1 405.7 989.1 337 839.5 337"/>
      </g>
      <g>
        <rect class="cls-2" x="455.8" y="238.4" width="69.1" height="167.3"/>
        <path class="cls-2" d="M722,339.3c-4.1-38.9-4.5-54.9-12.3-74.4a63.65,63.65,0,0,0-6.8-12.6,47.25,47.25,0,0,0-9.5-9.7c-11.4-9.2-18.6-9.7-22.7-10.9,10.9-4.6,15.5-6.9,20.9-10.9,5.5-3.4,11.4-9.7,13.2-12A78.39,78.39,0,0,0,718,190.5c11.8-22.9,11.4-50.4,11.4-55.5,0-27.5-6.4-45.2-11.8-56.1A76,76,0,0,0,709,64.6c-21.4-27.5-54.1-30.3-57.7-30.9-11.4-1.1-22.7-1.1-33.6-1.1H478.8V204.3h69.1V94.9h58.6c11.8,0.6,20.9.6,33.2,9.7,2.7,2.3,4.1,2.9,6.8,6.3,12.3,13.2,12.3,30.9,12.3,34.9,0,13.2-.5,45.8-34.1,55.5-10.5,2.9-21.8,2.3-25,2.9H547.9v64.7h52.3c17.7,0.6,26.8,2.9,34.6,11.4,12.7,13.7,13.2,32.1,16.8,64.1,4.1,39.5,6.8,52.7,17.3,92.2h77.3C735.2,410.8,727.5,389.6,722,339.3Z" transform="translate(-23 -30.9)"/>
      </g>
    </g>
    <rect class="cls-1" y="1.7" width="406" height="418.8"/>
  </g>
  <g id="Capa_2-2" data-name="Capa 2">
    <path class="cls-2" d="M169.5,234.9a69.94,69.94,0,0,1,110.1,0L378.2,178c-32.8-50.1-89.3-83.3-153.6-83.3A183.41,183.41,0,0,0,70.9,178Z" transform="translate(-23 -30.9)"/>
    <path class="cls-2" d="M214.4,347.6a69.94,69.94,0,0,1-55-95.2L60.8,195.5A182.42,182.42,0,0,0,41,278.2c0,98,76.8,177.8,173.5,183.1V347.6h-0.1Z" transform="translate(-23 -30.9)"/>
    <path class="cls-2" d="M388.2,195.5l-98.6,56.9a69.94,69.94,0,0,1-55,95.2V461.4c96.6-5.3,173.5-85.1,173.5-183.1A182.6,182.6,0,0,0,388.2,195.5Z" transform="translate(-23 -30.9)"/>
  </g>
  <g id="Capa_3-2" data-name="Capa 3">
    <g class="cls-3">
      <path class="cls-2" d="M488.1,470.4v37.3h35.7V494.8l8.6,1.8v6.1a30.86,30.86,0,0,1-.5,5.9,7.65,7.65,0,0,1-1.9,3.7,7.28,7.28,0,0,1-3.7,1.9,24,24,0,0,1-5.8.5H491.7a30.5,30.5,0,0,1-5.8-.5,8.13,8.13,0,0,1-3.7-1.9,8.25,8.25,0,0,1-2-3.7,24.35,24.35,0,0,1-.6-5.9V475.6a23.79,23.79,0,0,1,.6-5.9,7.74,7.74,0,0,1,2-3.7,7.27,7.27,0,0,1,3.7-1.9,24,24,0,0,1,5.8-.5h28.8a30.5,30.5,0,0,1,5.8.5A8.13,8.13,0,0,1,530,466a7.28,7.28,0,0,1,1.9,3.7,24.93,24.93,0,0,1,.5,5.9v4.9l-8.6,1.6V470.4H488.1Z" transform="translate(-23 -30.9)"/>
      <path class="cls-2" d="M554.3,475.6a23.79,23.79,0,0,1,.6-5.9,7.74,7.74,0,0,1,2-3.7,7.28,7.28,0,0,1,3.7-1.9,24,24,0,0,1,5.8-.5H602a30.5,30.5,0,0,1,5.8.5,8.13,8.13,0,0,1,3.7,1.9,7.28,7.28,0,0,1,1.9,3.7,24.93,24.93,0,0,1,.5,5.9v27.1a30.86,30.86,0,0,1-.5,5.9,7.65,7.65,0,0,1-1.9,3.7,7.28,7.28,0,0,1-3.7,1.9,24,24,0,0,1-5.8.5H566.4a30.5,30.5,0,0,1-5.8-.5,8.13,8.13,0,0,1-3.7-1.9,8.25,8.25,0,0,1-2-3.7,24.35,24.35,0,0,1-.6-5.9V475.6h0Zm51.2,32.1V470.4H562.9v37.3h42.6Z" transform="translate(-23 -30.9)"/>
      <path class="cls-2" d="M647.1,472.6a31.89,31.89,0,0,1,.3,4.2v38.1H640V463.4h7.1l25,33.5,23.3-33.5h7.9v51.5h-7.9V480.2c0-.6,0-1.5.1-2.8s0.2-2.9.3-4.8a39,39,0,0,1-3.1,5.6l-19.6,28.6h-2.2L650.5,479c-0.5-.7-1.1-1.6-1.7-2.5A18.12,18.12,0,0,1,647.1,472.6Z" transform="translate(-23 -30.9)"/>
      <path class="cls-2" d="M730.1,463.4h41.5c3.8,0,6.5.8,8.3,2.3s2.6,4.1,2.6,7.7v11.5c0,3.6-.9,6.1-2.6,7.7s-4.5,2.3-8.3,2.3H738.7v20h-8.6V463.4Zm8.6,6.7V488h29.5a6.85,6.85,0,0,0,4.2-1c0.9-.7,1.3-2.1,1.3-4.3v-7.2c0-2.1-.4-3.6-1.3-4.3a6.81,6.81,0,0,0-4.2-1.1H738.7Z" transform="translate(-23 -30.9)"/>
      <path class="cls-2" d="M821.6,463.4h9.2l28.6,51.5h-9.5l-6.6-12.7H808.5l-6.6,12.7h-8.5Zm18.2,32.2-13.9-26.3L812,495.6h27.8Z" transform="translate(-23 -30.9)"/>
      <path class="cls-2" d="M876,463.4h41.5c3.8,0,6.5.8,8.3,2.3s2.6,4.1,2.6,7.7v11.5c0,3.6-.9,6.1-2.6,7.7s-4.5,2.3-8.3,2.3h-7.6l23.5,20H920.6l-20.9-20H884.5v20H876V463.4Zm8.6,6.7v18h29.5a6.85,6.85,0,0,0,4.2-1c0.9-.7,1.3-2.1,1.3-4.3v-7.5c0-2.1-.4-3.5-1.3-4.2a6.85,6.85,0,0,0-4.2-1H884.6Z" transform="translate(-23 -30.9)"/>
      <path class="cls-2" d="M971.9,514.9h-8.6V470.4H939.8v-7h55.7v7H971.9v44.5h0Z" transform="translate(-23 -30.9)"/>
      <path class="cls-2" d="M1010,463.4h8.6v51.5H1010V463.4Z" transform="translate(-23 -30.9)"/>
      <path class="cls-2" d="M1045.3,463.4h41.5c3.8,0,6.5.8,8.3,2.3s2.6,4.1,2.6,7.7v11.5c0,3.6-.9,6.1-2.6,7.7s-4.5,2.3-8.3,2.3h-7.6l23.5,20H1090l-20.9-20h-15.2v20h-8.6V463.4Zm8.6,6.7v18h29.5a6.85,6.85,0,0,0,4.2-1c0.9-.7,1.3-2.1,1.3-4.3v-7.5c0-2.1-.4-3.5-1.3-4.2a6.85,6.85,0,0,0-4.2-1h-29.5Z" transform="translate(-23 -30.9)"/>
      <path class="cls-2" d="M1158.6,463.4h49.6v6.9h-41v14.4h25v6.8h-25v16.4h41.4V515h-50V463.4Z" transform="translate(-23 -30.9)"/>
      <path class="cls-2" d="M1229,463.4h8.6v44.3h39v7.2H1229V463.4Z" transform="translate(-23 -30.9)"/>
      <path class="cls-2" d="M1339.3,470.4v37.3H1375V494.8l8.6,1.8v6.1a30.86,30.86,0,0,1-.5,5.9,7.65,7.65,0,0,1-1.9,3.7,7.28,7.28,0,0,1-3.7,1.9,24,24,0,0,1-5.8.5h-28.8a30.5,30.5,0,0,1-5.8-.5,8.13,8.13,0,0,1-3.7-1.9,8.25,8.25,0,0,1-2-3.7,24.35,24.35,0,0,1-.6-5.9V475.6a23.79,23.79,0,0,1,.6-5.9,7.74,7.74,0,0,1,2-3.7,7.27,7.27,0,0,1,3.7-1.9,24,24,0,0,1,5.8-.5h28.8a30.5,30.5,0,0,1,5.8.5,8.13,8.13,0,0,1,3.7,1.9,7.28,7.28,0,0,1,1.9,3.7,24.93,24.93,0,0,1,.5,5.9v4.9l-8.6,1.6V470.4h-35.7Z" transform="translate(-23 -30.9)"/>
      <path class="cls-2" d="M1405.5,475.6a23.79,23.79,0,0,1,.6-5.9,7.74,7.74,0,0,1,2-3.7,7.27,7.27,0,0,1,3.7-1.9,24,24,0,0,1,5.8-.5h35.6a30.5,30.5,0,0,1,5.8.5,8.13,8.13,0,0,1,3.7,1.9,7.28,7.28,0,0,1,1.9,3.7,24.93,24.93,0,0,1,.5,5.9v27.1a30.86,30.86,0,0,1-.5,5.9,7.65,7.65,0,0,1-1.9,3.7,7.28,7.28,0,0,1-3.7,1.9,24,24,0,0,1-5.8.5h-35.6a30.5,30.5,0,0,1-5.8-.5,8.13,8.13,0,0,1-3.7-1.9,8.25,8.25,0,0,1-2-3.7,24.35,24.35,0,0,1-.6-5.9V475.6Zm51.1,32.1V470.4H1414v37.3h42.6Z" transform="translate(-23 -30.9)"/>
      <path class="cls-2" d="M1491.2,463.4h5.4l38.5,34.4a49.39,49.39,0,0,1,5.9,6.5,56.57,56.57,0,0,1-.7-6.7c-0.1-2.1-.1-4.1-0.1-5.9V463.5h7.9V515h-4.8l-39.6-35.8c-0.7-.7-1.6-1.5-2.5-2.3a16.79,16.79,0,0,1-2.7-3.4,55.37,55.37,0,0,1,.5,5.6c0.1,1.8.1,3.7,0.1,5.6V515h-7.9V463.4h0Z" transform="translate(-23 -30.9)"/>
      <path class="cls-2" d="M1574.1,475.6a23.79,23.79,0,0,1,.6-5.9,7.74,7.74,0,0,1,2-3.7,7.27,7.27,0,0,1,3.7-1.9,24,24,0,0,1,5.8-.5h35.6a30.5,30.5,0,0,1,5.8.5,8.13,8.13,0,0,1,3.7,1.9,7.28,7.28,0,0,1,1.9,3.7,24.93,24.93,0,0,1,.5,5.9v27.1a30.86,30.86,0,0,1-.5,5.9,7.65,7.65,0,0,1-1.9,3.7,7.28,7.28,0,0,1-3.7,1.9,24,24,0,0,1-5.8.5h-35.6a30.5,30.5,0,0,1-5.8-.5,8.13,8.13,0,0,1-3.7-1.9,8.25,8.25,0,0,1-2-3.7,24.35,24.35,0,0,1-.6-5.9V475.6Zm51.2,32.1V470.4h-42.6v37.3h42.6Z" transform="translate(-23 -30.9)"/>
      <path class="cls-2" d="M1667.7,470.4v37.3h35.7V494.8l8.6,1.8v6.1a30.86,30.86,0,0,1-.5,5.9,7.65,7.65,0,0,1-1.9,3.7,7.28,7.28,0,0,1-3.7,1.9,24,24,0,0,1-5.8.5h-28.8a30.5,30.5,0,0,1-5.8-.5,8.13,8.13,0,0,1-3.7-1.9,8.25,8.25,0,0,1-2-3.7,24.35,24.35,0,0,1-.6-5.9V475.6a23.79,23.79,0,0,1,.6-5.9,7.74,7.74,0,0,1,2-3.7,7.27,7.27,0,0,1,3.7-1.9,24,24,0,0,1,5.8-.5h28.8a30.5,30.5,0,0,1,5.8.5,8.13,8.13,0,0,1,3.7,1.9,7.28,7.28,0,0,1,1.9,3.7,24.93,24.93,0,0,1,.5,5.9v4.9l-8.6,1.6V470.4h-35.7Z" transform="translate(-23 -30.9)"/>
      <path class="cls-2" d="M1734.6,463.4h8.6v51.5h-8.6V463.4Z" transform="translate(-23 -30.9)"/>
      <path class="cls-2" d="M1776.9,472.6a31.9,31.9,0,0,1,.3,4.2v38.1h-7.4V463.4h7.1l25,33.5,23.3-33.5h7.9v51.5h-7.9V480.2c0-.6,0-1.5.1-2.8s0.2-2.9.3-4.8a39.05,39.05,0,0,1-3.1,5.6l-19.6,28.6h-2.2L1780.3,479c-0.5-.7-1.1-1.6-1.7-2.5A25,25,0,0,1,1776.9,472.6Z" transform="translate(-23 -30.9)"/>
      <path class="cls-2" d="M1860,463.4h8.6v51.5H1860V463.4Z" transform="translate(-23 -30.9)"/>
      <path class="cls-2" d="M1895.3,463.4h49.6v6.9h-41v14.4h25v6.8h-25v16.4h41.4V515h-50V463.4Z" transform="translate(-23 -30.9)"/>
      <path class="cls-2" d="M1965.7,463.4h5.4l38.5,34.4a49.39,49.39,0,0,1,5.9,6.5,56.57,56.57,0,0,1-.7-6.7c-0.1-2.1-.1-4.1-0.1-5.9V463.5h7.9V515h-4.8l-39.6-35.8c-0.7-.7-1.6-1.5-2.5-2.3a16.79,16.79,0,0,1-2.7-3.4,55.37,55.37,0,0,1,.5,5.6c0.1,1.8.1,3.7,0.1,5.6V515h-7.9V463.4h0Z" transform="translate(-23 -30.9)"/>
      <path class="cls-2" d="M2069.2,514.9h-8.6V470.4h-23.5v-7h55.7v7h-23.6v44.5h0Z" transform="translate(-23 -30.9)"/>
      <path class="cls-2" d="M2106.6,475.6a23.78,23.78,0,0,1,.6-5.9,7.74,7.74,0,0,1,2-3.7,7.27,7.27,0,0,1,3.7-1.9,24,24,0,0,1,5.8-.5h35.6a30.5,30.5,0,0,1,5.8.5,8.13,8.13,0,0,1,3.7,1.9,7.27,7.27,0,0,1,1.9,3.7,24.93,24.93,0,0,1,.5,5.9v27.1a30.86,30.86,0,0,1-.5,5.9,7.65,7.65,0,0,1-1.9,3.7,7.27,7.27,0,0,1-3.7,1.9,24,24,0,0,1-5.8.5h-35.6a30.5,30.5,0,0,1-5.8-.5,8.13,8.13,0,0,1-3.7-1.9,8.25,8.25,0,0,1-2-3.7,24.35,24.35,0,0,1-.6-5.9V475.6Zm51.1,32.1V470.4h-42.6v37.3h42.6Z" transform="translate(-23 -30.9)"/>
    </g>
    <line class="cls-4" x1="406" y1="420.5" x2="2147" y2="420.5"/>
  </g>
</svg>
