<svg id="Capa_2" data-name="Capa 2" xmlns="http://www.w3.org/2000/svg" viewBox="0 0 442.63 175.06" class="svgcyt">
  <defs>

  </defs>
  <title>logo-cyt</title>
  <polygon class="cls-1" points="194.69 172.2 236.73 172.2 236.73 105.46 292.56 2.85 250.27 2.85 217.5 69.6 183.78 2.85 138.87 2.85 194.69 105.23 194.69 172.2"/>
  <polygon class="cls-2" points="352.13 172.2 394.65 172.2 394.65 36.82 442.63 36.82 442.63 2.85 304.16 2.85 304.16 36.82 352.13 36.82 352.13 172.2"/>
  <path class="cls-2" d="M110,342.81c32.77,0,67.69-16.62,67.69-55.58v-8.31h-39.9v4c0,17.58-14.48,25.18-27.55,25.18-17.34,0-29.93-10-29.93-27.32v-51.3c0-19.24,14.49-27.08,29.46-27.08,13.06,0,28,7.37,28,25.18v3.8h39.9v-7.84c0-39.2-35.86-55.82-68.64-55.82-37.53,0-71.26,20.67-71.26,62.23v51.78c0,42.28,34.92,61,72.21,61" transform="translate(-37.78 -167.76)"/>
</svg>
