<?xml version="1.0" encoding="utf-8"?>
<!-- Generator: Adobe Illustrator 19.2.1, SVG Export Plug-In . SVG Version: 6.00 Build 0)  -->
<svg version="1.1" id="Layer_1" xmlns="http://www.w3.org/2000/svg" xmlns:xlink="http://www.w3.org/1999/xlink" x="0px" y="0px"
	 viewBox="0 0 226.8 70.9" style="enable-background:new 0 0 226.8 70.9;" xml:space="preserve" class="svgdeacero">
<style type="text/css">
	.st0{fill:#FF5000;}
</style>
<path d="M222.1,10.1c0,1.2-0.4,2.3-1.3,3.1c-0.9,0.9-1.9,1.3-3.1,1.3c-1.2,0-2.3-0.4-3.1-1.3c-0.9-0.9-1.3-1.9-1.3-3.1
	c0-1.2,0.4-2.3,1.3-3.1c0.9-0.9,1.9-1.3,3.1-1.3c1.2,0,2.3,0.4,3.1,1.3C221.6,7.8,222.1,8.9,222.1,10.1 M221.5,10.1
	c0-1.1-0.4-2-1.1-2.7c-0.7-0.8-1.6-1.1-2.7-1.1c-1.1,0-2,0.4-2.7,1.1c-0.8,0.8-1.1,1.7-1.1,2.7c0,1.1,0.4,2,1.1,2.7
	c0.7,0.8,1.6,1.1,2.7,1.1c1.1,0,2-0.4,2.7-1.1C221.1,12.1,221.5,11.2,221.5,10.1 M220.5,12.3h-1.2l-1.7-1.8h-0.8v1.8H216V7.7h1.6
	c0.3,0,0.6,0,0.8,0c0.2,0,0.4,0.1,0.6,0.2c0.2,0.1,0.4,0.3,0.5,0.4c0.1,0.2,0.2,0.4,0.2,0.6c0,0.3-0.1,0.6-0.3,0.8
	c-0.2,0.2-0.5,0.4-0.8,0.5L220.5,12.3z M218.7,9c0-0.1,0-0.2-0.1-0.3c0-0.1-0.1-0.2-0.2-0.2c-0.1-0.1-0.2-0.1-0.3-0.1
	c-0.1,0-0.3,0-0.4,0h-0.8v1.6h0.6c0.2,0,0.4,0,0.5-0.1c0.2,0,0.3-0.1,0.4-0.2c0.1-0.1,0.2-0.2,0.2-0.3C218.7,9.3,218.7,9.2,218.7,9"
	/>
<path class="st0" d="M76,48.7c2-5.7,4.3-12.9,5.9-17.5c1.5,4.5,4,11.7,5.9,17.4c1.4,0.9,3,1.7,5,2.3c-3.5-10.4-9.7-28.4-9.7-28.5
	c-0.3-0.7-0.8-1.1-1.2-1.1c-0.4,0-0.9,0.4-1.2,1.1c0,0.1-6.1,18-9.6,28.5l0.3-0.1C73.1,50.2,74.7,49.5,76,48.7"/>
<path class="st0" d="M70,53.4c-0.9,2.6-1.5,4.5-1.5,4.5l0,0c-0.7,2.3-2.5,3.5-5.3,3.5H4.1v4h59.2c4.6,0,7.9-2.3,9.1-6.4l-0.1,0.2
	c0,0,0.6-2,1.5-4.5c-0.7-0.3-1.5-0.6-2.4-0.8L70,53.4z"/>
<path class="st0" d="M100.4,61.4c-2.8,0-4.6-1.2-5.3-3.5l0,0c0,0-0.6-1.8-1.4-4.3l-1.2,0.3c-0.9,0.3-1.8,0.6-2.6,0.9
	c0.8,2.5,1.4,4.3,1.4,4.3L91.3,59c1.2,4,4.5,6.4,9.1,6.4h121.8v-4H100.4z"/>
<path d="M174.8,37.2c2.4,0,5-3.1,5-7c0-4.1-3.4-6.7-5.8-6.7h-8.6c-1.3,0-2.1,0.7-2.1,2v26.8h4V27.4h6c1.8,0,3.1,1.8,3.1,3.5
	c0,1.4-0.8,3.1-2.4,3.1c-1.7,0-3.4-0.3-4.4,1c-0.8,1.1-1,2.5,0.6,5.3l8.8,14.8h-78.2C100.4,53.4,89,20,89,20l-0.1-0.2
	c-1.4-3-4.1-4.9-7-4.9c-3,0-5.7,1.9-7,4.9L74.7,20C63.5,53,63.5,52.9,62.8,55H4.1v4h59.2c2.1,0,2.7-0.9,3-1.8l0,0l12.2-35.7l0,0
	c0.7-1.6,2-2.5,3.4-2.5c1.4,0,2.7,0.9,3.4,2.5l0,0l12.2,35.7l0,0c0.3,0.9,0.8,1.8,3,1.8h85.8l-13.5-21.8
	C172.7,37.2,174.1,37.2,174.8,37.2"/>
<path d="M222.2,55h-31.1c-1.9-3.3-6.4-9.9-9.1-14.5c2.5-2.4,4.1-6.3,4.1-10.4c0-7.6-6.3-13.1-12.2-13.1h-8.6c-4.8,0-8.4,3.6-8.4,8.3
	v26.8h4V25.4c0-2.6,1.8-4.3,4.4-4.3h8.6c4,0,8.2,3.9,8.2,9.1c0,4.5-2.6,8-5.5,9c1,1.7,8.8,13.9,12.3,19.8h33.3V55z"/>
<path d="M42.1,43.3V25.9c0-3.1,1.7-4.8,4.7-4.8l16.4,0l0-4l-16.4,0c-5.3,0-8.8,3.5-8.8,8.8v17.4c0,5.3,3.4,8.8,8.8,8.8l12.7,0l1.2-4
	l-13.9,0C43.8,48.1,42.1,46.4,42.1,43.3"/>
<path d="M44.5,25.9v7.5l13.9,0l0-3.3l-9.9,0v-2.7c3.9,0,14.8,0,14.8,0l0-4c-2.9,0-16.4,0-16.4,0C45.1,23.4,44.5,24.1,44.5,25.9"/>
<path d="M44.5,43.3c0,1.8,0.6,2.5,2.4,2.5l14.6,0l1.2-4c0,0-11.6,0-14.2,0V39l9.9,0l0-3.3l-13.9,0V43.3z"/>
<path d="M131.5,43.3V25.9c0-3.1,1.7-4.8,4.7-4.8l16.4,0v-4l-16.4,0c-5.3,0-8.7,3.5-8.7,8.8v17.4c0,5.3,3.4,8.8,8.7,8.8l16.4,0v-4
	l-16.4,0C133.2,48.1,131.5,46.4,131.5,43.3"/>
<path d="M133.9,25.9v7.5l13.9,0l0-3.3l-9.9,0v-2.7c3.9,0,14.8,0,14.8,0l0-4c-2.9,0-16.4,0-16.4,0C134.5,23.4,133.9,24.1,133.9,25.9"
	/>
<path d="M133.9,43.3c0,1.8,0.6,2.5,2.4,2.5l16.4,0l0-4c0,0-12.2,0-14.8,0V39l9.9,0l0-3.3l-13.9,0V43.3z"/>
<path d="M102.9,34.6c0-7.5,6.1-13.6,13.7-13.6h7.5v-4h-7.5c-9.7,0-17.7,7.9-17.7,17.6c0,9.7,7.9,17.6,17.7,17.6h7.5v-4h-7.5
	C109,48.2,102.9,42.1,102.9,34.6"/>
<path d="M116.5,27.4h7.5v-4h-7.5c-6.2,0-11.3,5-11.3,11.2c0,6.2,5.1,11.2,11.3,11.2h7.5v-4h-7.5c-4,0-7.3-3.3-7.3-7.3
	C109.2,30.6,112.5,27.4,116.5,27.4"/>
<path d="M71.9,52.3c5.2,1,9.2,4.8,10.1,8.8c0.9-4,4.2-7.6,10.1-8.8c-5.8-1.1-9-3.9-10.1-8.8C81.5,48.2,77.4,51.5,71.9,52.3"/>
<path d="M223.3,34.6c0,9.7-7.9,17.6-17.7,17.6c-9.8,0-17.7-7.9-17.7-17.6c0-9.7,7.9-17.6,17.7-17.6C215.4,17,223.3,24.9,223.3,34.6
	 M213,34.6c0,4-3.3,7.3-7.3,7.3c-4,0-7.3-3.2-7.3-7.3c0-4,3.3-7.3,7.3-7.3C209.7,27.4,213,30.6,213,34.6 M205.7,21
	c-7.5,0-13.7,6.1-13.7,13.6c0,7.5,6.1,13.6,13.7,13.6c7.5,0,13.7-6.1,13.7-13.6C219.3,27.1,213.2,21,205.7,21 M205.7,23.4
	c-6.2,0-11.3,5-11.3,11.2c0,6.2,5,11.2,11.3,11.2c6.2,0,11.3-5,11.3-11.2C217,28.4,211.9,23.4,205.7,23.4"/>
<path d="M28.7,34.6c0-6.1-4.9-11.1-11-11.2c0,0-4.8,0-4.8,0c-1.7,0-2.4,0.6-2.4,2.5v20c1.7,0,7.1,0,7.1,0
	C23.7,45.8,28.7,40.8,28.7,34.6 M17.4,41.9h-3V27.4c1.1,0,2.4,0,3,0c4,0,7.3,3.3,7.3,7.3C24.7,38.6,21.4,41.9,17.4,41.9"/>
<path d="M35.1,34.6c0-9.7-7.9-17.6-17.6-17.6l-4.7,0c-5.3,0-8.7,3.5-8.7,8.8v26.3h13.3C27.2,52.2,35.1,44.3,35.1,34.6 M17.4,48.2
	H9.3c-0.7,0-1.2-0.5-1.2-1.2V25.9c0-3.1,1.7-4.8,4.7-4.8l4.6,0c7.5,0,13.6,6.1,13.6,13.6C31.1,42.1,25,48.2,17.4,48.2"/>
</svg>
