<svg id="Capa_3" data-name="Capa 3" xmlns="http://www.w3.org/2000/svg" viewBox="0 0 482 486.04" class="svgmacrofibras">
  <title>macrofibras</title>
  <path d="M17.57,455.49V499H61.08Z" transform="translate(-17.57 -12.96)"/>
  <circle cx="403.7" cy="219.77" r="25.77"/>
  <path d="M412.68,274.82v18h17.18v-18A43,43,0,0,1,412.68,274.82Z" transform="translate(-17.57 -12.96)"/>
  <path d="M33.93,310L222.8,499h40.3l-189-189H33.93Z" transform="translate(-17.57 -12.96)"/>
  <path d="M17.57,390.9v40.3L85.38,499h40.3Z" transform="translate(-17.57 -12.96)"/>
  <circle cx="77.3" cy="219.77" r="25.77"/>
  <path d="M498.57,310H446.19l52.38,52.44V310Z" transform="translate(-17.57 -12.96)"/>
  <path d="M498.57,499V459.61L349,310H308.78L497.67,499h0.9Z" transform="translate(-17.57 -12.96)"/>
  <path d="M284.49,310H235.86l189,189h48.56Z" transform="translate(-17.57 -12.96)"/>
  <path d="M198.51,499L17.57,318V366.6L150,499h48.55Z" transform="translate(-17.57 -12.96)"/>
  <path d="M498.57,386.76L421.92,310H373.29L498.57,435.32V386.76Z" transform="translate(-17.57 -12.96)"/>
  <path d="M98.43,310l189,189H336L147.06,310H98.43Z" transform="translate(-17.57 -12.96)"/>
  <path d="M400.53,499l-189-189H171.35L360.24,499h40.29Z" transform="translate(-17.57 -12.96)"/>
  <path d="M86.68,275.82v18h17.18v-18A43,43,0,0,1,86.68,275.82Z" transform="translate(-17.57 -12.96)"/>
  <path d="M499.57,56.48V13H456.06Z" transform="translate(-17.57 -12.96)"/>
  <circle cx="78.3" cy="266.27" r="25.77"/>
  <path d="M104.46,237.14v-18H87.29v18A43,43,0,0,1,104.46,237.14Z" transform="translate(-17.57 -12.96)"/>
  <path d="M483.22,201.93L294.34,13H254l189,189h40.22Z" transform="translate(-17.57 -12.96)"/>
  <path d="M499.57,121.07V80.77L431.77,13h-40.3Z" transform="translate(-17.57 -12.96)"/>
  <circle cx="404.7" cy="266.27" r="25.77"/>
  <path d="M18.57,201.93H70.95L18.57,149.49v52.44Z" transform="translate(-17.57 -12.96)"/>
  <path d="M18.57,13V52.35L168.15,201.93h40.22L19.47,13h-0.9Z" transform="translate(-17.57 -12.96)"/>
  <path d="M232.65,201.93h48.63L92.32,13H43.76Z" transform="translate(-17.57 -12.96)"/>
  <path d="M318.63,13L499.57,194V145.36L367.18,13H318.63Z" transform="translate(-17.57 -12.96)"/>
  <path d="M18.57,125.2l76.65,76.73h48.63L18.57,76.65V125.2Z" transform="translate(-17.57 -12.96)"/>
  <path d="M418.71,201.93l-189-189H181.19l188.89,189h48.63Z" transform="translate(-17.57 -12.96)"/>
  <path d="M116.61,13l189,189h40.22L156.9,13H116.61Z" transform="translate(-17.57 -12.96)"/>
  <path d="M430.46,236.14v-18H413.29v18A43,43,0,0,1,430.46,236.14Z" transform="translate(-17.57 -12.96)"/>
</svg>
