<svg id="Capa_1" data-name="Capa 1" xmlns="http://www.w3.org/2000/svg" viewBox="0 0 500 502" class="svgprensa">
  <title>prensa</title>
  <path class="cls-1" d="M215.07,49H178V86.07Z" transform="translate(-6 -4)"/>
  <path class="cls-1" d="M339,62.93L178,223.86V258.2l161-161V62.93Z" transform="translate(-6 -4)"/>
  <path class="cls-1" d="M270.11,49H235.77L178,106.77v34.34Z" transform="translate(-6 -4)"/>
  <path class="cls-1" d="M339,458.82V414.19l-44.68,44.63H339Z" transform="translate(-6 -4)"/>
  <path class="cls-1" d="M178,458.82h33.56L339,331.38V297.12L178,458v0.77Z" transform="translate(-6 -4)"/>
  <path class="cls-1" d="M339,276.42V235L178,396v41.37Z" transform="translate(-6 -4)"/>
  <path class="cls-1" d="M178,203.16L332.24,49H290.8L178,161.8v41.36Z" transform="translate(-6 -4)"/>
  <path class="cls-1" d="M273.63,458.82L339,393.51V352.08L232.26,458.82h41.37Z" transform="translate(-6 -4)"/>
  <path class="cls-1" d="M6,36V4H506V36H6Z" transform="translate(-6 -4)"/>
  <path class="cls-1" d="M339,117.89l-161,161v41.37L339,159.33V117.89Z" transform="translate(-6 -4)"/>
  <path class="cls-1" d="M178,375.29l161-161V180L178,341v34.33Z" transform="translate(-6 -4)"/>
  <path class="cls-1" d="M6,506V474H506v32H6Z" transform="translate(-6 -4)"/>
</svg>
