<svg height="512" viewBox="0 0 64 64" width="512" xmlns="http://www.w3.org/2000/svg" class="svgrevolvedora"><g id="Concrete_mixer" data-name="Concrete mixer"><path d="m4 52h4.685a7 7 0 0 1 6.315-4h-11z"/><path d="m38 48h-23a7 7 0 0 1 6.315 4h16.685z"/><path d="m6 44h2v2h-2z"/><path d="m8 41.034-2-1.321v2.287h2z"/><path d="m21.92 54a6.29 6.29 0 0 1 0 2h20.16a6.29 6.29 0 0 1 0-2z"/><path d="m6 54v1a1 1 0 0 0 1 1h1.08a6.29 6.29 0 0 1 0-2z"/><path d="m45 38h9v-2a1 1 0 0 1 2 0v2h1.941a9.011 9.011 0 0 0 -8.941-8h-5v7a1 1 0 0 0 1 1z"/><path d="m54 45a1 1 0 0 0 1 1h3v-2h-3a1 1 0 0 0 -1 1z"/><path d="m56 55a7.026 7.026 0 0 1 -.08 1h3.08a1 1 0 0 0 1-1v-1h-4.08a7.026 7.026 0 0 1 .08 1z"/><path d="m58 48h-3a3 3 0 0 1 0-6h3v-2h-13a3 3 0 0 1 -3-3v-7h-2v22h2.685a6.985 6.985 0 0 1 12.63 0h2.685zm-12-4h-2a1 1 0 0 1 0-2h2a1 1 0 0 1 0 2z"/><path d="m18.357 45.471 1.451-5.418a1 1 0 0 1 1.932.518l-1.435 5.355 8.305-.879a5.029 5.029 0 0 0 4.3-3.678l1.491-5.562a5.031 5.031 0 0 0 -1.889-5.337l-6.753-4.914-1.694 6.321a1 1 0 0 1 -.965.742.972.972 0 0 1 -.259-.035 1 1 0 0 1 -.707-1.224l1.73-6.456h-.006l-15.84.145a1 1 0 0 0 -.957.742l-2.6 9.7a1 1 0 0 0 .416 1.094l13.432 8.869c.02.003.035.008.048.017zm2.487-9.282.259-.965a1 1 0 0 1 1.931.517l-.259.966a1 1 0 0 1 -.965.742.972.972 0 0 1 -.259-.035 1 1 0 0 1 -.707-1.225z"/><path d="m46 42h-2a1 1 0 0 0 0 2h2a1 1 0 0 0 0-2z"/><path d="m6 54v1a1 1 0 0 0 1 1h1.08a6.29 6.29 0 0 1 0-2z"/><path d="m4 52h4.685a7 7 0 0 1 6.315-4h-11z"/><path d="m6 44h2v2h-2z"/><path d="m8 41.034-2-1.321v2.287h2z"/><path d="m45 38h9v-2a1 1 0 0 1 2 0v2h1.941a9.011 9.011 0 0 0 -8.941-8h-5v7a1 1 0 0 0 1 1z"/><path d="m38 48h-23a7 7 0 0 1 6.315 4h16.685z"/><path d="m21.92 54a6.29 6.29 0 0 1 0 2h20.16a6.29 6.29 0 0 1 0-2z"/><path d="m54 45a1 1 0 0 0 1 1h3v-2h-3a1 1 0 0 0 -1 1z"/><path d="m58 48h-3a3 3 0 0 1 0-6h3v-2h-13a3 3 0 0 1 -3-3v-7h-2v22h2.685a6.985 6.985 0 0 1 12.63 0h2.685z"/><path d="m55.92 54a6.29 6.29 0 0 1 0 2h3.08a1 1 0 0 0 1-1v-1z"/><circle cx="49" cy="55" r="1"/><path d="m49 50a5 5 0 1 0 5 5 5.006 5.006 0 0 0 -5-5zm0 8a3 3 0 1 1 3-3 3 3 0 0 1 -3 3z"/><path d="m15 50a5 5 0 1 0 5 5 5.006 5.006 0 0 0 -5-5zm0 8a3 3 0 1 1 3-3 3 3 0 0 1 -3 3z"/><circle cx="15" cy="55" r="1"/></g></svg>